<?xml version="1.0" encoding="UTF-8" standalone="no"?>
<!DOCTYPE svg PUBLIC "-//W3C//DTD SVG 1.1//EN"
 "http://www.w3.org/Graphics/SVG/1.1/DTD/svg11.dtd">
<!-- Generated by graphviz version 2.38.0 (20140413.2041)
 -->
<!-- Title: lib/bitdecoder.h Pages: 1 -->
<svg width="402pt" height="196pt"
 viewBox="0.00 0.00 401.50 196.00" xmlns="http://www.w3.org/2000/svg" xmlns:xlink="http://www.w3.org/1999/xlink">
<g id="graph0" class="graph" transform="scale(1 1) rotate(0) translate(4 192)">
<title>lib/bitdecoder.h</title>
<!-- Node0 -->
<g id="node1" class="node"><title>Node0</title>
<polygon fill="#bfbfbf" stroke="black" points="160.5,-168.5 160.5,-187.5 243.5,-187.5 243.5,-168.5 160.5,-168.5"/>
<text text-anchor="middle" x="202" y="-175.5" font-family="Helvetica,sans-Serif" font-size="10.00">lib/bitdecoder.h</text>
</g>
<!-- Node1 -->
<g id="node2" class="node"><title>Node1</title>
<g id="a_node2"><a xlink:href="hidekisensor_8h.html" target="_top" xlink:title="Sensors::HidekiSensor and Sensors::HidekiDevice decode data from wireless Hideki RF 433 MHz sensors...">
<polygon fill="none" stroke="black" points="124,-56.5 124,-75.5 216,-75.5 216,-56.5 124,-56.5"/>
<text text-anchor="middle" x="170" y="-63.5" font-family="Helvetica,sans-Serif" font-size="10.00">lib/hidekisensor.h</text>
</a>
</g>
</g>
<!-- Node0&#45;&gt;Node1 -->
<g id="edge1" class="edge"><title>Node0&#45;&gt;Node1</title>
<path fill="none" stroke="midnightblue" d="M180.834,-162.044C171.667,-154.257 161.92,-143.879 157,-132 149.073,-112.862 158.72,-88.5018 165.147,-75.7247"/>
<polygon fill="midnightblue" stroke="midnightblue" points="178.917,-164.99 188.936,-168.436 183.253,-159.494 178.917,-164.99"/>
</g>
<!-- Node5 -->
<g id="node6" class="node"><title>Node5</title>
<g id="a_node6"><a xlink:href="rfdevice_8h.html" target="_top" xlink:title="Sensors::RfDevice is the base template for RF receivers connecting Demodulator, Bit Decoder and Senso...">
<polygon fill="none" stroke="black" points="166,-112.5 166,-131.5 238,-131.5 238,-112.5 166,-112.5"/>
<text text-anchor="middle" x="202" y="-119.5" font-family="Helvetica,sans-Serif" font-size="10.00">lib/rfdevice.h</text>
</a>
</g>
</g>
<!-- Node0&#45;&gt;Node5 -->
<g id="edge5" class="edge"><title>Node0&#45;&gt;Node5</title>
<path fill="none" stroke="midnightblue" d="M202,-157.805C202,-148.91 202,-138.78 202,-131.751"/>
<polygon fill="midnightblue" stroke="midnightblue" points="198.5,-158.083 202,-168.083 205.5,-158.083 198.5,-158.083"/>
</g>
<!-- Node6 -->
<g id="node7" class="node"><title>Node6</title>
<g id="a_node7"><a xlink:href="test__bitdecoder_8cpp.html" target="_top" xlink:title="Unit tests for Bit Decoder. ">
<polygon fill="none" stroke="black" points="256.5,-112.5 256.5,-131.5 383.5,-131.5 383.5,-112.5 256.5,-112.5"/>
<text text-anchor="middle" x="320" y="-119.5" font-family="Helvetica,sans-Serif" font-size="10.00">tests/test_bitdecoder.cpp</text>
</a>
</g>
</g>
<!-- Node0&#45;&gt;Node6 -->
<g id="edge7" class="edge"><title>Node0&#45;&gt;Node6</title>
<path fill="none" stroke="midnightblue" d="M229.9,-164.232C251.973,-154.131 282.176,-140.309 301.39,-131.516"/>
<polygon fill="midnightblue" stroke="midnightblue" points="228.334,-161.1 220.697,-168.444 231.247,-167.465 228.334,-161.1"/>
</g>
<!-- Node2 -->
<g id="node3" class="node"><title>Node2</title>
<g id="a_node3"><a xlink:href="main_8cpp.html" target="_top" xlink:title="The main weather station application utilizing Sensors library and AVR C++ utilities library...">
<polygon fill="none" stroke="black" points="0,-0.5 0,-19.5 84,-19.5 84,-0.5 0,-0.5"/>
<text text-anchor="middle" x="42" y="-7.5" font-family="Helvetica,sans-Serif" font-size="10.00">target/main.cpp</text>
</a>
</g>
</g>
<!-- Node1&#45;&gt;Node2 -->
<g id="edge2" class="edge"><title>Node1&#45;&gt;Node2</title>
<path fill="none" stroke="midnightblue" d="M140.377,-52.503C116.381,-42.3795 83.216,-28.388 62.1871,-19.5164"/>
<polygon fill="midnightblue" stroke="midnightblue" points="139.144,-55.7813 149.718,-56.4435 141.865,-49.3317 139.144,-55.7813"/>
</g>
<!-- Node3 -->
<g id="node4" class="node"><title>Node3</title>
<g id="a_node4"><a xlink:href="test__hidekidevice_8cpp.html" target="_top" xlink:title="Unit tests for Sensors::HidekiDevice. ">
<polygon fill="none" stroke="black" points="102,-0.5 102,-19.5 238,-19.5 238,-0.5 102,-0.5"/>
<text text-anchor="middle" x="170" y="-7.5" font-family="Helvetica,sans-Serif" font-size="10.00">tests/test_hidekidevice.cpp</text>
</a>
</g>
</g>
<!-- Node1&#45;&gt;Node3 -->
<g id="edge3" class="edge"><title>Node1&#45;&gt;Node3</title>
<path fill="none" stroke="midnightblue" d="M170,-45.8045C170,-36.9102 170,-26.7798 170,-19.7511"/>
<polygon fill="midnightblue" stroke="midnightblue" points="166.5,-46.083 170,-56.083 173.5,-46.083 166.5,-46.083"/>
</g>
<!-- Node4 -->
<g id="node5" class="node"><title>Node4</title>
<g id="a_node5"><a xlink:href="test__hidekisensor_8cpp.html" target="_top" xlink:title="Unit tests for Sensors::HidekiSensor. ">
<polygon fill="none" stroke="black" points="256.5,-0.5 256.5,-19.5 393.5,-19.5 393.5,-0.5 256.5,-0.5"/>
<text text-anchor="middle" x="325" y="-7.5" font-family="Helvetica,sans-Serif" font-size="10.00">tests/test_hidekisensor.cpp</text>
</a>
</g>
</g>
<!-- Node1&#45;&gt;Node4 -->
<g id="edge4" class="edge"><title>Node1&#45;&gt;Node4</title>
<path fill="none" stroke="midnightblue" d="M204.332,-53.0392C233.497,-42.8786 274.637,-28.5457 300.555,-19.5164"/>
<polygon fill="midnightblue" stroke="midnightblue" points="202.852,-49.8484 194.56,-56.4435 205.155,-56.4587 202.852,-49.8484"/>
</g>
<!-- Node5&#45;&gt;Node1 -->
<g id="edge6" class="edge"><title>Node5&#45;&gt;Node1</title>
<path fill="none" stroke="midnightblue" d="M191.496,-103.275C186.027,-94.0454 179.582,-83.1703 175.186,-75.7511"/>
<polygon fill="midnightblue" stroke="midnightblue" points="188.607,-105.264 196.716,-112.083 194.629,-101.696 188.607,-105.264"/>
</g>
</g>
</svg>
