<?xml version="1.0" encoding="UTF-8" standalone="no"?>
<!DOCTYPE svg PUBLIC "-//W3C//DTD SVG 1.1//EN"
 "http://www.w3.org/Graphics/SVG/1.1/DTD/svg11.dtd">
<!-- Generated by graphviz version 2.38.0 (20140413.2041)
 -->
<!-- Title: target/lib/ethernet.h Pages: 1 -->
<svg width="143pt" height="140pt"
 viewBox="0.00 0.00 142.50 140.00" xmlns="http://www.w3.org/2000/svg" xmlns:xlink="http://www.w3.org/1999/xlink">
<g id="graph0" class="graph" transform="scale(1 1) rotate(0) translate(4 136)">
<title>target/lib/ethernet.h</title>
<!-- Node0 -->
<g id="node1" class="node"><title>Node0</title>
<polygon fill="#bfbfbf" stroke="black" points="33.5,-112.5 33.5,-131.5 134.5,-131.5 134.5,-112.5 33.5,-112.5"/>
<text text-anchor="middle" x="84" y="-119.5" font-family="Helvetica,sans-Serif" font-size="10.00">target/lib/ethernet.h</text>
</g>
<!-- Node1 -->
<g id="node2" class="node"><title>Node1</title>
<g id="a_node2"><a xlink:href="wiznet_8h_source.html" target="_top" xlink:title="target/lib/wiznet.h">
<polygon fill="none" stroke="black" points="0,-56.5 0,-75.5 94,-75.5 94,-56.5 0,-56.5"/>
<text text-anchor="middle" x="47" y="-63.5" font-family="Helvetica,sans-Serif" font-size="10.00">target/lib/wiznet.h</text>
</a>
</g>
</g>
<!-- Node0&#45;&gt;Node1 -->
<g id="edge1" class="edge"><title>Node0&#45;&gt;Node1</title>
<path fill="none" stroke="midnightblue" d="M72.0542,-103.566C65.6883,-94.2747 58.1332,-83.2484 52.9961,-75.7511"/>
<polygon fill="midnightblue" stroke="midnightblue" points="69.3506,-105.812 77.8902,-112.083 75.1251,-101.855 69.3506,-105.812"/>
</g>
<!-- Node2 -->
<g id="node3" class="node"><title>Node2</title>
<g id="a_node3"><a xlink:href="main_8cpp.html" target="_top" xlink:title="The main weather station application utilizing Sensors library and AVR C++ utilities library...">
<polygon fill="none" stroke="black" points="42,-0.5 42,-19.5 126,-19.5 126,-0.5 42,-0.5"/>
<text text-anchor="middle" x="84" y="-7.5" font-family="Helvetica,sans-Serif" font-size="10.00">target/main.cpp</text>
</a>
</g>
</g>
<!-- Node0&#45;&gt;Node2 -->
<g id="edge3" class="edge"><title>Node0&#45;&gt;Node2</title>
<path fill="none" stroke="midnightblue" d="M93.4326,-103.247C97.2084,-95.1733 101.107,-85.3507 103,-76 107.153,-55.4888 96.3448,-32.0761 89.3732,-19.7132"/>
<polygon fill="midnightblue" stroke="midnightblue" points="90.2124,-101.862 88.8759,-112.372 96.4749,-104.989 90.2124,-101.862"/>
</g>
<!-- Node1&#45;&gt;Node2 -->
<g id="edge2" class="edge"><title>Node1&#45;&gt;Node2</title>
<path fill="none" stroke="midnightblue" d="M58.9458,-47.5656C65.3117,-38.2747 72.8668,-27.2484 78.0039,-19.7511"/>
<polygon fill="midnightblue" stroke="midnightblue" points="55.8749,-45.8553 53.1098,-56.083 61.6494,-49.812 55.8749,-45.8553"/>
</g>
</g>
</svg>
