<?xml version="1.0" encoding="UTF-8" standalone="no"?>
<!DOCTYPE svg PUBLIC "-//W3C//DTD SVG 1.1//EN"
 "http://www.w3.org/Graphics/SVG/1.1/DTD/svg11.dtd">
<!-- Generated by graphviz version 2.38.0 (20140413.2041)
 -->
<!-- Title: AVR C++ utilities library Pages: 1 -->
<svg width="418pt" height="104pt"
 viewBox="0.00 0.00 418.00 104.00" xmlns="http://www.w3.org/2000/svg" xmlns:xlink="http://www.w3.org/1999/xlink">
<g id="graph0" class="graph" transform="scale(1 1) rotate(0) translate(4 100)">
<title>AVR C++ utilities library</title>
<!-- Node2 -->
<g id="node1" class="node"><title>Node2</title>
<g id="a_node1"><a xlink:href="group__libtarget__interrupt.html" target="_top" xlink:title="Utilities for interrupt service routines. ">
<polygon fill="none" stroke="black" points="318,-76.5 318,-95.5 410,-95.5 410,-76.5 318,-76.5"/>
<text text-anchor="middle" x="364" y="-83.5" font-family="Helvetica,sans-Serif" font-size="10.00">Interrupt handling</text>
</a>
</g>
</g>
<!-- Node4 -->
<g id="node2" class="node"><title>Node4</title>
<g id="a_node2"><a xlink:href="group__libtarget__uart.html" target="_top" xlink:title="Wrapper for accessing built&#45;in UART communication interfaces. ">
<polygon fill="none" stroke="black" points="324.5,-38.5 324.5,-57.5 403.5,-57.5 403.5,-38.5 324.5,-38.5"/>
<text text-anchor="middle" x="364" y="-45.5" font-family="Helvetica,sans-Serif" font-size="10.00">UART module</text>
</a>
</g>
</g>
<!-- Node3 -->
<g id="node3" class="node"><title>Node3</title>
<g id="a_node3"><a xlink:href="group__libtarget__timer.html" target="_top" xlink:title="Wrapper for accessing built&#45;in timers facilities. ">
<polygon fill="none" stroke="black" points="326,-0.5 326,-19.5 402,-19.5 402,-0.5 326,-0.5"/>
<text text-anchor="middle" x="364" y="-7.5" font-family="Helvetica,sans-Serif" font-size="10.00">Timer module</text>
</a>
</g>
</g>
<!-- Node0 -->
<g id="node4" class="node"><title>Node0</title>
<polygon fill="#bfbfbf" stroke="black" points="159,-38.5 159,-57.5 282,-57.5 282,-38.5 159,-38.5"/>
<text text-anchor="middle" x="220.5" y="-45.5" font-family="Helvetica,sans-Serif" font-size="10.00">AVR C++ utilities library</text>
</g>
<!-- Node0&#45;&gt;Node2 -->
<g id="edge2" class="edge"><title>Node0&#45;&gt;Node2</title>
<path fill="none" stroke="midnightblue" d="M267.101,-60.2462C286.605,-65.484 309.04,-71.5091 327.305,-76.4141"/>
<polygon fill="midnightblue" stroke="midnightblue" points="267.772,-56.8025 257.206,-57.589 265.956,-63.5629 267.772,-56.8025"/>
</g>
<!-- Node0&#45;&gt;Node4 -->
<g id="edge4" class="edge"><title>Node0&#45;&gt;Node4</title>
<path fill="none" stroke="midnightblue" d="M292.396,-48C303.389,-48 314.377,-48 324.299,-48"/>
<polygon fill="midnightblue" stroke="midnightblue" points="292.33,-44.5001 282.33,-48 292.33,-51.5001 292.33,-44.5001"/>
</g>
<!-- Node0&#45;&gt;Node3 -->
<g id="edge3" class="edge"><title>Node0&#45;&gt;Node3</title>
<path fill="none" stroke="midnightblue" d="M267.101,-35.7538C286.605,-30.516 309.04,-24.4909 327.305,-19.5859"/>
<polygon fill="midnightblue" stroke="midnightblue" points="265.956,-32.4371 257.206,-38.411 267.772,-39.1975 265.956,-32.4371"/>
</g>
<!-- Node1 -->
<g id="node5" class="node"><title>Node1</title>
<g id="a_node5"><a xlink:href="group__target.html" target="_top" xlink:title="AVR dependent code. ">
<polygon fill="none" stroke="black" points="0,-38.5 0,-57.5 123,-57.5 123,-38.5 0,-38.5"/>
<text text-anchor="middle" x="61.5" y="-45.5" font-family="Helvetica,sans-Serif" font-size="10.00">Hardware/target specific</text>
</a>
</g>
</g>
<!-- Node1&#45;&gt;Node0 -->
<g id="edge1" class="edge"><title>Node1&#45;&gt;Node0</title>
<path fill="none" stroke="midnightblue" d="M133.21,-48C141.807,-48 150.53,-48 158.961,-48"/>
<polygon fill="midnightblue" stroke="midnightblue" points="133.2,-44.5001 123.2,-48 133.2,-51.5001 133.2,-44.5001"/>
</g>
</g>
</svg>
