<?xml version="1.0" encoding="UTF-8" standalone="no"?>
<!DOCTYPE svg PUBLIC "-//W3C//DTD SVG 1.1//EN"
 "http://www.w3.org/Graphics/SVG/1.1/DTD/svg11.dtd">
<!-- Generated by graphviz version 2.38.0 (20140413.2041)
 -->
<!-- Title: AVR C++ utilities library Pages: 1 -->
<svg width="483pt" height="404pt"
 viewBox="0.00 0.00 483.00 403.50" xmlns="http://www.w3.org/2000/svg" xmlns:xlink="http://www.w3.org/1999/xlink">
<g id="graph0" class="graph" transform="scale(1 1) rotate(0) translate(4 399.5)">
<title>AVR C++ utilities library</title>
<!-- Node3 -->
<g id="node1" class="node"><title>Node3</title>
<g id="a_node1"><a xlink:href="group__libtarget__atomic.html" target="_top" xlink:title="Utilities for ensuring atomic / non atomic execution of code blocks. ">
<polygon fill="none" stroke="black" points="350.5,-376 350.5,-395 442.5,-395 442.5,-376 350.5,-376"/>
<text text-anchor="middle" x="396.5" y="-383" font-family="Helvetica,sans-Serif" font-size="10.00">Atomic execution</text>
</a>
</g>
</g>
<!-- Node6 -->
<g id="node2" class="node"><title>Node6</title>
<g id="a_node2"><a xlink:href="group__libtarget__i2c.html" target="_top" xlink:title="Wrapper for accessing built&#45;in I2C (TWI) communication interfaces. ">
<polygon fill="none" stroke="black" points="349,-338 349,-357 444,-357 444,-338 349,-338"/>
<text text-anchor="middle" x="396.5" y="-345" font-family="Helvetica,sans-Serif" font-size="10.00">I2C (TWI) module</text>
</a>
</g>
</g>
<!-- Node7 -->
<g id="node3" class="node"><title>Node7</title>
<g id="a_node3"><a xlink:href="group__libtarget__interrupt.html" target="_top" xlink:title="Utilities for interrupt service routines. ">
<polygon fill="none" stroke="black" points="350.5,-300 350.5,-319 442.5,-319 442.5,-300 350.5,-300"/>
<text text-anchor="middle" x="396.5" y="-307" font-family="Helvetica,sans-Serif" font-size="10.00">Interrupt handling</text>
</a>
</g>
</g>
<!-- Node11 -->
<g id="node4" class="node"><title>Node11</title>
<g id="a_node4"><a xlink:href="group__libtarget__uart.html" target="_top" xlink:title="Wrapper for accessing built&#45;in UART communication interfaces. ">
<polygon fill="none" stroke="black" points="357,-262 357,-281 436,-281 436,-262 357,-262"/>
<text text-anchor="middle" x="396.5" y="-269" font-family="Helvetica,sans-Serif" font-size="10.00">UART module</text>
</a>
</g>
</g>
<!-- Node9 -->
<g id="node5" class="node"><title>Node9</title>
<g id="a_node5"><a xlink:href="group__libtarget__pin.html" target="_top" xlink:title="Wrapper for accessing digital I/O ports. ">
<polygon fill="none" stroke="black" points="364,-224 364,-243 429,-243 429,-224 364,-224"/>
<text text-anchor="middle" x="396.5" y="-231" font-family="Helvetica,sans-Serif" font-size="10.00">Pin module</text>
</a>
</g>
</g>
<!-- Node8 -->
<g id="node6" class="node"><title>Node8</title>
<g id="a_node6"><a xlink:href="group__libtarget__mlx90614.html" target="_top" xlink:title="Avr::Mlx90614 decodes data from Melexis MLX90614 Infrared thermometer sensors. ">
<polygon fill="none" stroke="black" points="318,-186 318,-205 475,-205 475,-186 318,-186"/>
<text text-anchor="middle" x="396.5" y="-193" font-family="Helvetica,sans-Serif" font-size="10.00">MLX90614 Infrared thermometer</text>
</a>
</g>
</g>
<!-- Node10 -->
<g id="node7" class="node"><title>Node10</title>
<g id="a_node7"><a xlink:href="group__libtarget__timer.html" target="_top" xlink:title="Wrapper for accessing built&#45;in timers facilities. ">
<polygon fill="none" stroke="black" points="358.5,-148 358.5,-167 434.5,-167 434.5,-148 358.5,-148"/>
<text text-anchor="middle" x="396.5" y="-155" font-family="Helvetica,sans-Serif" font-size="10.00">Timer module</text>
</a>
</g>
</g>
<!-- Node0 -->
<g id="node8" class="node"><title>Node0</title>
<polygon fill="#bfbfbf" stroke="black" points="159,-205 159,-224 282,-224 282,-205 159,-205"/>
<text text-anchor="middle" x="220.5" y="-212" font-family="Helvetica,sans-Serif" font-size="10.00">AVR C++ utilities library</text>
</g>
<!-- Node0&#45;&gt;Node3 -->
<g id="edge3" class="edge"><title>Node0&#45;&gt;Node3</title>
<path fill="none" stroke="black" d="M228.25,-233.839C240.671,-266.475 270.325,-332.264 318,-366.5 327.452,-373.288 339.045,-377.667 350.357,-380.487"/>
<polygon fill="black" stroke="black" points="231.423,-232.323 224.698,-224.136 224.849,-234.729 231.423,-232.323"/>
</g>
<!-- Node0&#45;&gt;Node6 -->
<g id="edge6" class="edge"><title>Node0&#45;&gt;Node6</title>
<path fill="none" stroke="black" d="M231.927,-232.934C247.351,-258.461 278.706,-304.171 318,-328.5 327.305,-334.261 338.247,-338.276 348.93,-341.074"/>
<polygon fill="black" stroke="black" points="234.895,-231.076 226.812,-224.226 228.859,-234.621 234.895,-231.076"/>
</g>
<!-- Node0&#45;&gt;Node7 -->
<g id="edge7" class="edge"><title>Node0&#45;&gt;Node7</title>
<path fill="none" stroke="black" d="M238.073,-231.26C256.166,-248.608 286.751,-275.26 318,-290.5 327.961,-295.358 339.265,-299.035 350.099,-301.795"/>
<polygon fill="black" stroke="black" points="240.274,-228.516 230.682,-224.018 235.375,-233.517 240.274,-228.516"/>
</g>
<!-- Node0&#45;&gt;Node11 -->
<g id="edge11" class="edge"><title>Node0&#45;&gt;Node11</title>
<path fill="none" stroke="black" d="M252.651,-228.003C271.369,-235.804 295.789,-245.44 318,-252.5 330.542,-256.487 344.448,-260.131 356.979,-263.138"/>
<polygon fill="black" stroke="black" points="253.999,-224.773 243.425,-224.114 251.28,-231.223 253.999,-224.773"/>
</g>
<!-- Node0&#45;&gt;Node9 -->
<g id="edge9" class="edge"><title>Node0&#45;&gt;Node9</title>
<path fill="none" stroke="black" d="M292.472,-222.25C317.244,-224.955 343.811,-227.856 363.763,-230.034"/>
<polygon fill="black" stroke="black" points="292.678,-218.752 282.357,-221.145 291.918,-225.71 292.678,-218.752"/>
</g>
<!-- Node0&#45;&gt;Node8 -->
<g id="edge8" class="edge"><title>Node0&#45;&gt;Node8</title>
<path fill="none" stroke="black" d="M292.446,-206.753C300.818,-205.839 309.396,-204.902 317.855,-203.978"/>
<polygon fill="black" stroke="black" points="291.918,-203.29 282.357,-207.855 292.678,-210.248 291.918,-203.29"/>
</g>
<!-- Node0&#45;&gt;Node10 -->
<g id="edge10" class="edge"><title>Node0&#45;&gt;Node10</title>
<path fill="none" stroke="black" d="M252.651,-200.997C271.369,-193.196 295.789,-183.56 318,-176.5 330.938,-172.387 345.328,-168.639 358.162,-165.579"/>
<polygon fill="black" stroke="black" points="251.28,-197.777 243.425,-204.886 253.999,-204.227 251.28,-197.777"/>
</g>
<!-- Node4 -->
<g id="node10" class="node"><title>Node4</title>
<g id="a_node10"><a xlink:href="group__libtarget__bmp180.html" target="_top" xlink:title="Avr::Bmp180 decodes data from Bosch BMP180 Digital pressure sensors. ">
<polygon fill="none" stroke="black" points="334,-98.5 334,-128.5 459,-128.5 459,-98.5 334,-98.5"/>
<text text-anchor="start" x="342" y="-116.5" font-family="Helvetica,sans-Serif" font-size="10.00">BMP180 Digital pressure</text>
<text text-anchor="middle" x="396.5" y="-105.5" font-family="Helvetica,sans-Serif" font-size="10.00"> sensor</text>
</a>
</g>
</g>
<!-- Node0&#45;&gt;Node4 -->
<g id="edge4" class="edge"><title>Node0&#45;&gt;Node4</title>
<path fill="none" stroke="black" d="M238.59,-197.907C256.904,-180.918 287.48,-154.762 318,-138.5 324.987,-134.777 332.626,-131.487 340.297,-128.617"/>
<polygon fill="black" stroke="black" points="235.948,-195.588 231.082,-205 240.755,-200.677 235.948,-195.588"/>
</g>
<!-- Node2 -->
<g id="node11" class="node"><title>Node2</title>
<g id="a_node11"><a xlink:href="group__libtarget__adc.html" target="_top" xlink:title="Wrapper for accessing built&#45;in analog to digital conversion facilities. ">
<polygon fill="none" stroke="black" points="329.5,-49.5 329.5,-79.5 463.5,-79.5 463.5,-49.5 329.5,-49.5"/>
<text text-anchor="start" x="337.5" y="-67.5" font-family="Helvetica,sans-Serif" font-size="10.00">Analog to Digital Converter</text>
<text text-anchor="middle" x="396.5" y="-56.5" font-family="Helvetica,sans-Serif" font-size="10.00"> (ADC)</text>
</a>
</g>
</g>
<!-- Node0&#45;&gt;Node2 -->
<g id="edge2" class="edge"><title>Node0&#45;&gt;Node2</title>
<path fill="none" stroke="black" d="M230.792,-196.049C245.55,-168.586 276.932,-117.128 318,-88.5 322.969,-85.0365 328.455,-82.0594 334.144,-79.503"/>
<polygon fill="black" stroke="black" points="227.647,-194.51 226.12,-204.994 233.852,-197.751 227.647,-194.51"/>
</g>
<!-- Node5 -->
<g id="node12" class="node"><title>Node5</title>
<g id="a_node12"><a xlink:href="group__libtarget__dht22.html" target="_top" xlink:title="Avr::Dht22 decodes data from DHT22 / AM2302 Temperature and Humidity sensors. ">
<polygon fill="none" stroke="black" points="342,-0.5 342,-30.5 451,-30.5 451,-0.5 342,-0.5"/>
<text text-anchor="start" x="350" y="-18.5" font-family="Helvetica,sans-Serif" font-size="10.00">DHT22 Temperature </text>
<text text-anchor="middle" x="396.5" y="-7.5" font-family="Helvetica,sans-Serif" font-size="10.00">/ Humidity sensor</text>
</a>
</g>
</g>
<!-- Node0&#45;&gt;Node5 -->
<g id="edge5" class="edge"><title>Node0&#45;&gt;Node5</title>
<path fill="none" stroke="black" d="M226.873,-195.115C237.858,-159.074 266.319,-81.5994 318,-39.5 324.989,-33.8066 333.327,-29.4599 341.904,-26.1424"/>
<polygon fill="black" stroke="black" points="223.463,-194.305 224.018,-204.885 230.182,-196.268 223.463,-194.305"/>
</g>
<!-- Node1 -->
<g id="node9" class="node"><title>Node1</title>
<g id="a_node9"><a xlink:href="group__target.html" target="_top" xlink:title="AVR dependent code. ">
<polygon fill="none" stroke="black" points="0,-205 0,-224 123,-224 123,-205 0,-205"/>
<text text-anchor="middle" x="61.5" y="-212" font-family="Helvetica,sans-Serif" font-size="10.00">Hardware/target specific</text>
</a>
</g>
</g>
<!-- Node1&#45;&gt;Node0 -->
<g id="edge1" class="edge"><title>Node1&#45;&gt;Node0</title>
<path fill="none" stroke="black" d="M133.21,-214.5C141.807,-214.5 150.53,-214.5 158.961,-214.5"/>
<polygon fill="black" stroke="black" points="133.2,-211 123.2,-214.5 133.2,-218 133.2,-211"/>
</g>
</g>
</svg>
