<?xml version="1.0" encoding="UTF-8" standalone="no"?>
<!DOCTYPE svg PUBLIC "-//W3C//DTD SVG 1.1//EN"
 "http://www.w3.org/Graphics/SVG/1.1/DTD/svg11.dtd">
<!-- Generated by graphviz version 2.38.0 (20140413.2041)
 -->
<!-- Title: Supported targets Pages: 1 -->
<svg width="441pt" height="66pt"
 viewBox="0.00 0.00 441.00 66.00" xmlns="http://www.w3.org/2000/svg" xmlns:xlink="http://www.w3.org/1999/xlink">
<g id="graph0" class="graph" transform="scale(1 1) rotate(0) translate(4 62)">
<title>Supported targets</title>
<!-- Node0 -->
<g id="node1" class="node"><title>Node0</title>
<polygon fill="#bfbfbf" stroke="black" points="159,-19.5 159,-38.5 253,-38.5 253,-19.5 159,-19.5"/>
<text text-anchor="middle" x="206" y="-26.5" font-family="Helvetica,sans-Serif" font-size="10.00">Supported targets</text>
</g>
<!-- Node3 -->
<g id="node2" class="node"><title>Node3</title>
<g id="a_node2"><a xlink:href="group__atdemo.html" target="_top" xlink:title="Atmel ATmega Demonstrator by Stefan Frenz (University of Ulm). ">
<polygon fill="none" stroke="black" points="289,-38.5 289,-57.5 433,-57.5 433,-38.5 289,-38.5"/>
<text text-anchor="middle" x="361" y="-45.5" font-family="Helvetica,sans-Serif" font-size="10.00">Atmel ATmega Demonstrator</text>
</a>
</g>
</g>
<!-- Node0&#45;&gt;Node3 -->
<g id="edge3" class="edge"><title>Node0&#45;&gt;Node3</title>
<path fill="none" stroke="black" d="M263.314,-35.9932C271.672,-37.0311 280.376,-38.112 288.987,-39.1814"/>
<polygon fill="black" stroke="black" points="263.675,-32.5113 253.32,-34.7522 262.813,-39.458 263.675,-32.5113"/>
</g>
<!-- Node2 -->
<g id="node3" class="node"><title>Node2</title>
<g id="a_node3"><a xlink:href="group__arduino.html" target="_top" xlink:title="Arduino (and compatible) boards. ">
<polygon fill="none" stroke="black" points="336,-0.5 336,-19.5 386,-19.5 386,-0.5 336,-0.5"/>
<text text-anchor="middle" x="361" y="-7.5" font-family="Helvetica,sans-Serif" font-size="10.00">Arduino</text>
</a>
</g>
</g>
<!-- Node0&#45;&gt;Node2 -->
<g id="edge2" class="edge"><title>Node0&#45;&gt;Node2</title>
<path fill="none" stroke="black" d="M263.396,-21.9966C288.265,-18.9083 316.186,-15.441 335.59,-13.0313"/>
<polygon fill="black" stroke="black" points="262.813,-18.542 253.32,-23.2478 263.675,-25.4887 262.813,-18.542"/>
</g>
<!-- Node1 -->
<g id="node4" class="node"><title>Node1</title>
<g id="a_node4"><a xlink:href="group__target.html" target="_top" xlink:title="AVR dependent code. ">
<polygon fill="none" stroke="black" points="0,-19.5 0,-38.5 123,-38.5 123,-19.5 0,-19.5"/>
<text text-anchor="middle" x="61.5" y="-26.5" font-family="Helvetica,sans-Serif" font-size="10.00">Hardware/target specific</text>
</a>
</g>
</g>
<!-- Node1&#45;&gt;Node0 -->
<g id="edge1" class="edge"><title>Node1&#45;&gt;Node0</title>
<path fill="none" stroke="black" d="M133.366,-29C141.929,-29 150.5,-29 158.584,-29"/>
<polygon fill="black" stroke="black" points="133.346,-25.5001 123.346,-29 133.346,-32.5001 133.346,-25.5001"/>
</g>
</g>
</svg>
