<?xml version="1.0" encoding="UTF-8" standalone="no"?>
<!DOCTYPE svg PUBLIC "-//W3C//DTD SVG 1.1//EN"
 "http://www.w3.org/Graphics/SVG/1.1/DTD/svg11.dtd">
<!-- Generated by graphviz version 2.38.0 (20140413.2041)
 -->
<!-- Title: Sensors library Pages: 1 -->
<svg width="230pt" height="180pt"
 viewBox="0.00 0.00 230.00 180.00" xmlns="http://www.w3.org/2000/svg" xmlns:xlink="http://www.w3.org/1999/xlink">
<g id="graph0" class="graph" transform="scale(1 1) rotate(0) translate(4 176)">
<title>Sensors library</title>
<!-- Node3 -->
<g id="node1" class="node"><title>Node3</title>
<g id="a_node1"><a xlink:href="group__libsensors__tgs2600.html" target="_top" xlink:title="Sensors::Tgs2600 decodes data from Figaro TGS 2600 air contaminants sensors. ">
<polygon fill="none" stroke="black" points="124.5,-152.5 124.5,-171.5 215.5,-171.5 215.5,-152.5 124.5,-152.5"/>
<text text-anchor="middle" x="170" y="-159.5" font-family="Helvetica,sans-Serif" font-size="10.00">Figaro TGS 2600</text>
</a>
</g>
</g>
<!-- Node2 -->
<g id="node2" class="node"><title>Node2</title>
<g id="a_node2"><a xlink:href="group__libsensors__rf.html" target="_top" xlink:title="Utilities for decoding sensor data from RF receivers such as demodulator and decoder. ">
<polygon fill="none" stroke="black" points="135.5,-114.5 135.5,-133.5 204.5,-133.5 204.5,-114.5 135.5,-114.5"/>
<text text-anchor="middle" x="170" y="-121.5" font-family="Helvetica,sans-Serif" font-size="10.00">RF Sensors</text>
</a>
</g>
</g>
<!-- Node0 -->
<g id="node3" class="node"><title>Node0</title>
<polygon fill="#bfbfbf" stroke="black" points="0,-76.5 0,-95.5 82,-95.5 82,-76.5 0,-76.5"/>
<text text-anchor="middle" x="41" y="-83.5" font-family="Helvetica,sans-Serif" font-size="10.00">Sensors library</text>
</g>
<!-- Node0&#45;&gt;Node3 -->
<g id="edge3" class="edge"><title>Node0&#45;&gt;Node3</title>
<path fill="none" stroke="black" d="M60.4991,-102.272C75.2837,-114.665 96.9478,-131.497 118,-143 124.55,-146.579 131.915,-149.759 138.967,-152.444"/>
<polygon fill="black" stroke="black" points="62.5224,-99.3975 52.6459,-95.5628 57.9753,-104.72 62.5224,-99.3975"/>
</g>
<!-- Node0&#45;&gt;Node2 -->
<g id="edge2" class="edge"><title>Node0&#45;&gt;Node2</title>
<path fill="none" stroke="black" d="M83.8943,-98.5353C101.171,-103.705 120.871,-109.599 136.963,-114.414"/>
<polygon fill="black" stroke="black" points="84.6311,-95.1025 74.0475,-95.589 82.6245,-101.809 84.6311,-95.1025"/>
</g>
<!-- Node4 -->
<g id="node4" class="node"><title>Node4</title>
<g id="a_node4"><a xlink:href="group__libsensors__utils.html" target="_top" xlink:title="Bit manipulation utilities. ">
<polygon fill="none" stroke="black" points="145,-76.5 145,-95.5 195,-95.5 195,-76.5 145,-76.5"/>
<text text-anchor="middle" x="170" y="-83.5" font-family="Helvetica,sans-Serif" font-size="10.00">Utilities</text>
</a>
</g>
</g>
<!-- Node0&#45;&gt;Node4 -->
<g id="edge4" class="edge"><title>Node0&#45;&gt;Node4</title>
<path fill="none" stroke="black" d="M92.3498,-86C110.481,-86 130.109,-86 144.963,-86"/>
<polygon fill="black" stroke="black" points="92.1836,-82.5001 82.1836,-86 92.1836,-89.5001 92.1836,-82.5001"/>
</g>
<!-- Node5 -->
<g id="node5" class="node"><title>Node5</title>
<g id="a_node5"><a xlink:href="group__libsensors__tests.html" target="_top" xlink:title="Unit tests for Sensors library. ">
<polygon fill="none" stroke="black" points="140.5,-38.5 140.5,-57.5 199.5,-57.5 199.5,-38.5 140.5,-38.5"/>
<text text-anchor="middle" x="170" y="-45.5" font-family="Helvetica,sans-Serif" font-size="10.00">Unit tests</text>
</a>
</g>
</g>
<!-- Node0&#45;&gt;Node5 -->
<g id="edge5" class="edge"><title>Node0&#45;&gt;Node5</title>
<path fill="none" stroke="black" d="M83.7446,-73.5095C102.318,-67.952 123.717,-61.5493 140.429,-56.5487"/>
<polygon fill="black" stroke="black" points="82.6245,-70.1912 74.0475,-76.411 84.6311,-76.8975 82.6245,-70.1912"/>
</g>
<!-- Node1 -->
<g id="node6" class="node"><title>Node1</title>
<g id="a_node6"><a xlink:href="group__libsensors__hideki.html" target="_top" xlink:title="Sensors::HidekiSensor and Sensors::HidekiDevice decode data from wireless Hideki RF 433 MHz sensors...">
<polygon fill="none" stroke="black" points="118,-0.5 118,-19.5 222,-19.5 222,-0.5 118,-0.5"/>
<text text-anchor="middle" x="170" y="-7.5" font-family="Helvetica,sans-Serif" font-size="10.00">Hideki RF 433 MHz</text>
</a>
</g>
</g>
<!-- Node0&#45;&gt;Node1 -->
<g id="edge1" class="edge"><title>Node0&#45;&gt;Node1</title>
<path fill="none" stroke="black" d="M60.4991,-69.7276C75.2837,-57.3351 96.9478,-40.5025 118,-29 124.55,-25.421 131.915,-22.2415 138.967,-19.5558"/>
<polygon fill="black" stroke="black" points="57.9753,-67.2804 52.6459,-76.4372 62.5224,-72.6025 57.9753,-67.2804"/>
</g>
</g>
</svg>
