<?xml version="1.0" encoding="UTF-8" standalone="no"?>
<!DOCTYPE svg PUBLIC "-//W3C//DTD SVG 1.1//EN"
 "http://www.w3.org/Graphics/SVG/1.1/DTD/svg11.dtd">
<!-- Generated by graphviz version 2.38.0 (20140413.2041)
 -->
<!-- Title: AVR C++ utilities library Pages: 1 -->
<svg width="460pt" height="154pt"
 viewBox="0.00 0.00 460.00 153.50" xmlns="http://www.w3.org/2000/svg" xmlns:xlink="http://www.w3.org/1999/xlink">
<g id="graph0" class="graph" transform="scale(1 1) rotate(0) translate(4 149.5)">
<title>AVR C++ utilities library</title>
<!-- Node3 -->
<g id="node1" class="node"><title>Node3</title>
<g id="a_node1"><a xlink:href="group__libtarget__interrupt.html" target="_top" xlink:title="Utilities for interrupt service routines. ">
<polygon fill="none" stroke="black" points="339,-126 339,-145 431,-145 431,-126 339,-126"/>
<text text-anchor="middle" x="385" y="-133" font-family="Helvetica,sans-Serif" font-size="10.00">Interrupt handling</text>
</a>
</g>
</g>
<!-- Node5 -->
<g id="node2" class="node"><title>Node5</title>
<g id="a_node2"><a xlink:href="group__libtarget__uart.html" target="_top" xlink:title="Wrapper for accessing built&#45;in UART communication interfaces. ">
<polygon fill="none" stroke="black" points="345.5,-88 345.5,-107 424.5,-107 424.5,-88 345.5,-88"/>
<text text-anchor="middle" x="385" y="-95" font-family="Helvetica,sans-Serif" font-size="10.00">UART module</text>
</a>
</g>
</g>
<!-- Node4 -->
<g id="node3" class="node"><title>Node4</title>
<g id="a_node3"><a xlink:href="group__libtarget__timer.html" target="_top" xlink:title="Wrapper for accessing built&#45;in timers facilities. ">
<polygon fill="none" stroke="black" points="347,-50 347,-69 423,-69 423,-50 347,-50"/>
<text text-anchor="middle" x="385" y="-57" font-family="Helvetica,sans-Serif" font-size="10.00">Timer module</text>
</a>
</g>
</g>
<!-- Node0 -->
<g id="node4" class="node"><title>Node0</title>
<polygon fill="#bfbfbf" stroke="black" points="159,-69 159,-88 282,-88 282,-69 159,-69"/>
<text text-anchor="middle" x="220.5" y="-76" font-family="Helvetica,sans-Serif" font-size="10.00">AVR C++ utilities library</text>
</g>
<!-- Node0&#45;&gt;Node3 -->
<g id="edge3" class="edge"><title>Node0&#45;&gt;Node3</title>
<path fill="none" stroke="black" d="M253.386,-91.9368C272.056,-99.5821 296.18,-109.082 318,-116.5 327.822,-119.839 338.59,-123.103 348.528,-125.957"/>
<polygon fill="black" stroke="black" points="254.473,-88.5988 243.894,-88.0173 251.801,-95.069 254.473,-88.5988"/>
</g>
<!-- Node0&#45;&gt;Node5 -->
<g id="edge5" class="edge"><title>Node0&#45;&gt;Node5</title>
<path fill="none" stroke="black" d="M292.03,-86.7465C310.245,-88.8764 329.193,-91.0917 345.122,-92.9543"/>
<polygon fill="black" stroke="black" points="292.348,-83.26 282.009,-85.5749 291.535,-90.2126 292.348,-83.26"/>
</g>
<!-- Node0&#45;&gt;Node4 -->
<g id="edge4" class="edge"><title>Node0&#45;&gt;Node4</title>
<path fill="none" stroke="black" d="M292.03,-70.2535C310.799,-68.0589 330.345,-65.7735 346.566,-63.8769"/>
<polygon fill="black" stroke="black" points="291.535,-66.7874 282.009,-71.4251 292.348,-73.74 291.535,-66.7874"/>
</g>
<!-- Node2 -->
<g id="node6" class="node"><title>Node2</title>
<g id="a_node6"><a xlink:href="group__libtarget__adc.html" target="_top" xlink:title="Wrapper for accessing built&#45;in analog to digital conversion facilities. ">
<polygon fill="none" stroke="black" points="318,-0.5 318,-30.5 452,-30.5 452,-0.5 318,-0.5"/>
<text text-anchor="start" x="326" y="-18.5" font-family="Helvetica,sans-Serif" font-size="10.00">Analog to Digital Converter</text>
<text text-anchor="middle" x="385" y="-7.5" font-family="Helvetica,sans-Serif" font-size="10.00"> (ADC)</text>
</a>
</g>
</g>
<!-- Node0&#45;&gt;Node2 -->
<g id="edge2" class="edge"><title>Node0&#45;&gt;Node2</title>
<path fill="none" stroke="black" d="M255.129,-65.1333C273.654,-57.8013 297.071,-48.5841 318,-40.5 326.344,-37.2771 335.296,-33.8594 343.83,-30.6201"/>
<polygon fill="black" stroke="black" points="253.665,-61.9485 245.657,-68.8863 256.244,-68.4563 253.665,-61.9485"/>
</g>
<!-- Node1 -->
<g id="node5" class="node"><title>Node1</title>
<g id="a_node5"><a xlink:href="group__target.html" target="_top" xlink:title="AVR dependent code. ">
<polygon fill="none" stroke="black" points="0,-69 0,-88 123,-88 123,-69 0,-69"/>
<text text-anchor="middle" x="61.5" y="-76" font-family="Helvetica,sans-Serif" font-size="10.00">Hardware/target specific</text>
</a>
</g>
</g>
<!-- Node1&#45;&gt;Node0 -->
<g id="edge1" class="edge"><title>Node1&#45;&gt;Node0</title>
<path fill="none" stroke="black" d="M133.21,-78.5C141.807,-78.5 150.53,-78.5 158.961,-78.5"/>
<polygon fill="black" stroke="black" points="133.2,-75.0001 123.2,-78.5 133.2,-82.0001 133.2,-75.0001"/>
</g>
</g>
</svg>
