<?xml version="1.0" encoding="UTF-8" standalone="no"?>
<!DOCTYPE svg PUBLIC "-//W3C//DTD SVG 1.1//EN"
 "http://www.w3.org/Graphics/SVG/1.1/DTD/svg11.dtd">
<!-- Generated by graphviz version 2.38.0 (20140413.2041)
 -->
<!-- Title: AVR C++ utilities library Pages: 1 -->
<svg width="483pt" height="480pt"
 viewBox="0.00 0.00 483.00 479.50" xmlns="http://www.w3.org/2000/svg" xmlns:xlink="http://www.w3.org/1999/xlink">
<g id="graph0" class="graph" transform="scale(1 1) rotate(0) translate(4 475.5)">
<title>AVR C++ utilities library</title>
<!-- Node3 -->
<g id="node1" class="node"><title>Node3</title>
<g id="a_node1"><a xlink:href="group__libtarget__atomic.html" target="_top" xlink:title="Utilities for ensuring atomic / non atomic execution of code blocks. ">
<polygon fill="none" stroke="black" points="350.5,-452 350.5,-471 442.5,-471 442.5,-452 350.5,-452"/>
<text text-anchor="middle" x="396.5" y="-459" font-family="Helvetica,sans-Serif" font-size="10.00">Atomic execution</text>
</a>
</g>
</g>
<!-- Node7 -->
<g id="node2" class="node"><title>Node7</title>
<g id="a_node2"><a xlink:href="group__libtarget__i2c.html" target="_top" xlink:title="Wrapper for accessing built&#45;in I2C (TWI) communication interfaces. ">
<polygon fill="none" stroke="black" points="349,-414 349,-433 444,-433 444,-414 349,-414"/>
<text text-anchor="middle" x="396.5" y="-421" font-family="Helvetica,sans-Serif" font-size="10.00">I2C (TWI) module</text>
</a>
</g>
</g>
<!-- Node8 -->
<g id="node3" class="node"><title>Node8</title>
<g id="a_node3"><a xlink:href="group__libtarget__interrupt.html" target="_top" xlink:title="Utilities for interrupt service routines. ">
<polygon fill="none" stroke="black" points="350.5,-376 350.5,-395 442.5,-395 442.5,-376 350.5,-376"/>
<text text-anchor="middle" x="396.5" y="-383" font-family="Helvetica,sans-Serif" font-size="10.00">Interrupt handling</text>
</a>
</g>
</g>
<!-- Node13 -->
<g id="node4" class="node"><title>Node13</title>
<g id="a_node4"><a xlink:href="group__libtarget__uart.html" target="_top" xlink:title="Wrapper for accessing built&#45;in UART communication interfaces. ">
<polygon fill="none" stroke="black" points="357,-338 357,-357 436,-357 436,-338 357,-338"/>
<text text-anchor="middle" x="396.5" y="-345" font-family="Helvetica,sans-Serif" font-size="10.00">UART module</text>
</a>
</g>
</g>
<!-- Node10 -->
<g id="node5" class="node"><title>Node10</title>
<g id="a_node5"><a xlink:href="group__libtarget__pin.html" target="_top" xlink:title="Wrapper for accessing digital I/O ports. ">
<polygon fill="none" stroke="black" points="364,-300 364,-319 429,-319 429,-300 364,-300"/>
<text text-anchor="middle" x="396.5" y="-307" font-family="Helvetica,sans-Serif" font-size="10.00">Pin module</text>
</a>
</g>
</g>
<!-- Node9 -->
<g id="node6" class="node"><title>Node9</title>
<g id="a_node6"><a xlink:href="group__libtarget__mlx90614.html" target="_top" xlink:title="Avr::Mlx90614 decodes data from Melexis MLX90614 Infrared thermometer sensors. ">
<polygon fill="none" stroke="black" points="318,-262 318,-281 475,-281 475,-262 318,-262"/>
<text text-anchor="middle" x="396.5" y="-269" font-family="Helvetica,sans-Serif" font-size="10.00">MLX90614 Infrared thermometer</text>
</a>
</g>
</g>
<!-- Node12 -->
<g id="node7" class="node"><title>Node12</title>
<g id="a_node7"><a xlink:href="group__libtarget__timer.html" target="_top" xlink:title="Wrapper for accessing built&#45;in timers facilities. ">
<polygon fill="none" stroke="black" points="358.5,-224 358.5,-243 434.5,-243 434.5,-224 358.5,-224"/>
<text text-anchor="middle" x="396.5" y="-231" font-family="Helvetica,sans-Serif" font-size="10.00">Timer module</text>
</a>
</g>
</g>
<!-- Node11 -->
<g id="node8" class="node"><title>Node11</title>
<g id="a_node8"><a xlink:href="group__libtarget__spi.html" target="_top" xlink:title="Wrapper for accessing built&#45;in SPI communication interface. ">
<polygon fill="none" stroke="black" points="362.5,-186 362.5,-205 430.5,-205 430.5,-186 362.5,-186"/>
<text text-anchor="middle" x="396.5" y="-193" font-family="Helvetica,sans-Serif" font-size="10.00">SPI module</text>
</a>
</g>
</g>
<!-- Node0 -->
<g id="node9" class="node"><title>Node0</title>
<polygon fill="#bfbfbf" stroke="black" points="159,-243 159,-262 282,-262 282,-243 159,-243"/>
<text text-anchor="middle" x="220.5" y="-250" font-family="Helvetica,sans-Serif" font-size="10.00">AVR C++ utilities library</text>
</g>
<!-- Node0&#45;&gt;Node3 -->
<g id="edge3" class="edge"><title>Node0&#45;&gt;Node3</title>
<path fill="none" stroke="black" d="M225.732,-272.221C235.136,-311.093 261.546,-397.716 318,-442.5 327.225,-449.818 338.868,-454.371 350.306,-457.189"/>
<polygon fill="black" stroke="black" points="229.078,-271.156 223.431,-262.191 222.256,-272.72 229.078,-271.156"/>
</g>
<!-- Node0&#45;&gt;Node7 -->
<g id="edge7" class="edge"><title>Node0&#45;&gt;Node7</title>
<path fill="none" stroke="black" d="M228.25,-271.839C240.671,-304.475 270.325,-370.264 318,-404.5 327.002,-410.964 337.946,-415.244 348.739,-418.073"/>
<polygon fill="black" stroke="black" points="231.423,-270.323 224.698,-262.136 224.849,-272.729 231.423,-270.323"/>
</g>
<!-- Node0&#45;&gt;Node8 -->
<g id="edge8" class="edge"><title>Node0&#45;&gt;Node8</title>
<path fill="none" stroke="black" d="M231.927,-270.934C247.351,-296.461 278.706,-342.171 318,-366.5 327.658,-372.48 339.081,-376.578 350.146,-379.387"/>
<polygon fill="black" stroke="black" points="234.895,-269.076 226.812,-262.226 228.859,-272.621 234.895,-269.076"/>
</g>
<!-- Node0&#45;&gt;Node13 -->
<g id="edge13" class="edge"><title>Node0&#45;&gt;Node13</title>
<path fill="none" stroke="black" d="M238.073,-269.26C256.166,-286.608 286.751,-313.26 318,-328.5 330.078,-334.39 344.13,-338.545 356.925,-341.433"/>
<polygon fill="black" stroke="black" points="240.274,-266.516 230.682,-262.018 235.375,-271.517 240.274,-266.516"/>
</g>
<!-- Node0&#45;&gt;Node10 -->
<g id="edge10" class="edge"><title>Node0&#45;&gt;Node10</title>
<path fill="none" stroke="black" d="M252.651,-266.003C271.369,-273.804 295.789,-283.44 318,-290.5 332.919,-295.242 349.767,-299.5 363.935,-302.777"/>
<polygon fill="black" stroke="black" points="253.999,-262.773 243.425,-262.114 251.28,-269.223 253.999,-262.773"/>
</g>
<!-- Node0&#45;&gt;Node9 -->
<g id="edge9" class="edge"><title>Node0&#45;&gt;Node9</title>
<path fill="none" stroke="black" d="M292.446,-260.247C300.818,-261.161 309.396,-262.098 317.855,-263.022"/>
<polygon fill="black" stroke="black" points="292.678,-256.752 282.357,-259.145 291.918,-263.71 292.678,-256.752"/>
</g>
<!-- Node0&#45;&gt;Node12 -->
<g id="edge12" class="edge"><title>Node0&#45;&gt;Node12</title>
<path fill="none" stroke="black" d="M292.58,-244.738C315.106,-242.279 339.106,-239.658 358.259,-237.567"/>
<polygon fill="black" stroke="black" points="291.918,-241.29 282.357,-245.855 292.678,-248.248 291.918,-241.29"/>
</g>
<!-- Node0&#45;&gt;Node11 -->
<g id="edge11" class="edge"><title>Node0&#45;&gt;Node11</title>
<path fill="none" stroke="black" d="M252.651,-238.997C271.369,-231.196 295.789,-221.56 318,-214.5 332.391,-209.926 348.577,-205.802 362.42,-202.575"/>
<polygon fill="black" stroke="black" points="251.28,-235.777 243.425,-242.886 253.999,-242.227 251.28,-235.777"/>
</g>
<!-- Node6 -->
<g id="node11" class="node"><title>Node6</title>
<g id="a_node11"><a xlink:href="group__libtarget__ethernet.html" target="_top" xlink:title="Utilities for Ethernet communication interfaces. ">
<polygon fill="none" stroke="black" points="352.5,-148 352.5,-167 440.5,-167 440.5,-148 352.5,-148"/>
<text text-anchor="middle" x="396.5" y="-155" font-family="Helvetica,sans-Serif" font-size="10.00">Ethernet module</text>
</a>
</g>
</g>
<!-- Node0&#45;&gt;Node6 -->
<g id="edge6" class="edge"><title>Node0&#45;&gt;Node6</title>
<path fill="none" stroke="black" d="M238.073,-235.74C256.166,-218.392 286.751,-191.74 318,-176.5 328.584,-171.338 340.683,-167.51 352.125,-164.698"/>
<polygon fill="black" stroke="black" points="235.375,-233.483 230.682,-242.982 240.274,-238.484 235.375,-233.483"/>
</g>
<!-- Node4 -->
<g id="node12" class="node"><title>Node4</title>
<g id="a_node12"><a xlink:href="group__libtarget__bmp180.html" target="_top" xlink:title="Avr::Bmp180 decodes data from Bosch BMP180 Digital pressure sensors. ">
<polygon fill="none" stroke="black" points="334,-98.5 334,-128.5 459,-128.5 459,-98.5 334,-98.5"/>
<text text-anchor="start" x="342" y="-116.5" font-family="Helvetica,sans-Serif" font-size="10.00">BMP180 Digital pressure</text>
<text text-anchor="middle" x="396.5" y="-105.5" font-family="Helvetica,sans-Serif" font-size="10.00"> sensor</text>
</a>
</g>
</g>
<!-- Node0&#45;&gt;Node4 -->
<g id="edge4" class="edge"><title>Node0&#45;&gt;Node4</title>
<path fill="none" stroke="black" d="M232.175,-234.451C247.896,-209.384 279.602,-164.22 318,-138.5 323.756,-134.645 330.147,-131.349 336.72,-128.541"/>
<polygon fill="black" stroke="black" points="229.184,-232.634 226.952,-242.992 235.156,-236.286 229.184,-232.634"/>
</g>
<!-- Node2 -->
<g id="node13" class="node"><title>Node2</title>
<g id="a_node13"><a xlink:href="group__libtarget__adc.html" target="_top" xlink:title="Wrapper for accessing built&#45;in analog to digital conversion facilities. ">
<polygon fill="none" stroke="black" points="329.5,-49.5 329.5,-79.5 463.5,-79.5 463.5,-49.5 329.5,-49.5"/>
<text text-anchor="start" x="337.5" y="-67.5" font-family="Helvetica,sans-Serif" font-size="10.00">Analog to Digital Converter</text>
<text text-anchor="middle" x="396.5" y="-56.5" font-family="Helvetica,sans-Serif" font-size="10.00"> (ADC)</text>
</a>
</g>
</g>
<!-- Node0&#45;&gt;Node2 -->
<g id="edge2" class="edge"><title>Node0&#45;&gt;Node2</title>
<path fill="none" stroke="black" d="M227.717,-232.912C239.625,-198.545 268.918,-127.355 318,-88.5 322.307,-85.0904 327.1,-82.1626 332.132,-79.649"/>
<polygon fill="black" stroke="black" points="224.3,-232.095 224.459,-242.688 230.941,-234.308 224.3,-232.095"/>
</g>
<!-- Node5 -->
<g id="node14" class="node"><title>Node5</title>
<g id="a_node14"><a xlink:href="group__libtarget__dht22.html" target="_top" xlink:title="Avr::Dht22 decodes data from DHT22 / AM2302 Temperature and Humidity sensors. ">
<polygon fill="none" stroke="black" points="342,-0.5 342,-30.5 451,-30.5 451,-0.5 342,-0.5"/>
<text text-anchor="start" x="350" y="-18.5" font-family="Helvetica,sans-Serif" font-size="10.00">DHT22 Temperature </text>
<text text-anchor="middle" x="396.5" y="-7.5" font-family="Helvetica,sans-Serif" font-size="10.00">/ Humidity sensor</text>
</a>
</g>
</g>
<!-- Node0&#45;&gt;Node5 -->
<g id="edge5" class="edge"><title>Node0&#45;&gt;Node5</title>
<path fill="none" stroke="black" d="M224.85,-232.753C232.994,-190.873 257.763,-92.6379 318,-39.5 324.866,-33.4434 333.241,-28.9152 341.917,-25.5297"/>
<polygon fill="black" stroke="black" points="221.374,-232.306 223.015,-242.773 228.26,-233.567 221.374,-232.306"/>
</g>
<!-- Node1 -->
<g id="node10" class="node"><title>Node1</title>
<g id="a_node10"><a xlink:href="group__target.html" target="_top" xlink:title="AVR dependent code. ">
<polygon fill="none" stroke="black" points="0,-243 0,-262 123,-262 123,-243 0,-243"/>
<text text-anchor="middle" x="61.5" y="-250" font-family="Helvetica,sans-Serif" font-size="10.00">Hardware/target specific</text>
</a>
</g>
</g>
<!-- Node1&#45;&gt;Node0 -->
<g id="edge1" class="edge"><title>Node1&#45;&gt;Node0</title>
<path fill="none" stroke="black" d="M133.21,-252.5C141.807,-252.5 150.53,-252.5 158.961,-252.5"/>
<polygon fill="black" stroke="black" points="133.2,-249 123.2,-252.5 133.2,-256 133.2,-249"/>
</g>
</g>
</svg>
