<?xml version="1.0" encoding="UTF-8" standalone="no"?>
<!DOCTYPE svg PUBLIC "-//W3C//DTD SVG 1.1//EN"
 "http://www.w3.org/Graphics/SVG/1.1/DTD/svg11.dtd">
<!-- Generated by graphviz version 2.38.0 (20140413.2041)
 -->
<!-- Title: Sensors library Pages: 1 -->
<svg width="198pt" height="218pt"
 viewBox="0.00 0.00 198.00 218.00" xmlns="http://www.w3.org/2000/svg" xmlns:xlink="http://www.w3.org/1999/xlink">
<g id="graph0" class="graph" transform="scale(1 1) rotate(0) translate(4 214)">
<title>Sensors library</title>
<!-- Node4 -->
<g id="node1" class="node"><title>Node4</title>
<g id="a_node1"><a xlink:href="group__libsensors__sensor.html" target="_top" xlink:title="Sensors::Sensor is the base class for sensor specific data decoding. ">
<polygon fill="none" stroke="black" points="130.5,-190.5 130.5,-209.5 177.5,-209.5 177.5,-190.5 130.5,-190.5"/>
<text text-anchor="middle" x="154" y="-197.5" font-family="Helvetica,sans-Serif" font-size="10.00">Sensor</text>
</a>
</g>
</g>
<!-- Node1 -->
<g id="node2" class="node"><title>Node1</title>
<g id="a_node2"><a xlink:href="group__libsensors__bitdecoder.html" target="_top" xlink:title="Sensors::BitDecoder transforms continuous bit streams (for example from RF demodulation) into bytes...">
<polygon fill="none" stroke="black" points="120,-152.5 120,-171.5 188,-171.5 188,-152.5 120,-152.5"/>
<text text-anchor="middle" x="154" y="-159.5" font-family="Helvetica,sans-Serif" font-size="10.00">Bit Decoder</text>
</a>
</g>
</g>
<!-- Node3 -->
<g id="node3" class="node"><title>Node3</title>
<g id="a_node3"><a xlink:href="group__libsensors__rfdevice.html" target="_top" xlink:title="Sensors::RfDevice is the base template for RF receivers connecting Demodulator, Bit Decoder and Senso...">
<polygon fill="none" stroke="black" points="122,-114.5 122,-133.5 186,-133.5 186,-114.5 122,-114.5"/>
<text text-anchor="middle" x="154" y="-121.5" font-family="Helvetica,sans-Serif" font-size="10.00">RF Device</text>
</a>
</g>
</g>
<!-- Node0 -->
<g id="node4" class="node"><title>Node0</title>
<polygon fill="#bfbfbf" stroke="black" points="0,-95.5 0,-114.5 82,-114.5 82,-95.5 0,-95.5"/>
<text text-anchor="middle" x="41" y="-102.5" font-family="Helvetica,sans-Serif" font-size="10.00">Sensors library</text>
</g>
<!-- Node0&#45;&gt;Node4 -->
<g id="edge4" class="edge"><title>Node0&#45;&gt;Node4</title>
<path fill="none" stroke="midnightblue" d="M56.8618,-122.541C71.3522,-138.957 94.5727,-163.507 118,-181 122.543,-184.392 127.766,-187.56 132.769,-190.3"/>
<polygon fill="midnightblue" stroke="midnightblue" points="59.3229,-120.037 50.1251,-114.779 54.0363,-124.625 59.3229,-120.037"/>
</g>
<!-- Node0&#45;&gt;Node1 -->
<g id="edge1" class="edge"><title>Node0&#45;&gt;Node1</title>
<path fill="none" stroke="midnightblue" d="M69.6093,-119.178C89.8022,-129.547 116.651,-143.334 134.36,-152.428"/>
<polygon fill="midnightblue" stroke="midnightblue" points="71.0734,-115.995 60.5789,-114.541 67.8758,-122.222 71.0734,-115.995"/>
</g>
<!-- Node0&#45;&gt;Node3 -->
<g id="edge3" class="edge"><title>Node0&#45;&gt;Node3</title>
<path fill="none" stroke="midnightblue" d="M92.0355,-113.565C102.129,-115.292 112.465,-117.062 121.692,-118.641"/>
<polygon fill="midnightblue" stroke="midnightblue" points="92.5207,-110.097 82.0735,-111.859 91.3397,-116.997 92.5207,-110.097"/>
</g>
<!-- Node2 -->
<g id="node5" class="node"><title>Node2</title>
<g id="a_node5"><a xlink:href="group__libsensors__demodulator.html" target="_top" xlink:title="Sensors::Demodulator transforms continuous streams with pulse widths (for example from RF receivers) ...">
<polygon fill="none" stroke="black" points="118,-76.5 118,-95.5 190,-95.5 190,-76.5 118,-76.5"/>
<text text-anchor="middle" x="154" y="-83.5" font-family="Helvetica,sans-Serif" font-size="10.00">Demodulator</text>
</a>
</g>
</g>
<!-- Node0&#45;&gt;Node2 -->
<g id="edge2" class="edge"><title>Node0&#45;&gt;Node2</title>
<path fill="none" stroke="midnightblue" d="M92.1076,-96.423C100.768,-94.9406 109.605,-93.428 117.765,-92.0313"/>
<polygon fill="midnightblue" stroke="midnightblue" points="91.3397,-93.0035 82.0735,-98.1406 92.5207,-99.9031 91.3397,-93.0035"/>
</g>
<!-- Node5 -->
<g id="node6" class="node"><title>Node5</title>
<g id="a_node6"><a xlink:href="group__libsensors__utils.html" target="_top" xlink:title="Bit manipulation utilities. ">
<polygon fill="none" stroke="black" points="129,-38.5 129,-57.5 179,-57.5 179,-38.5 129,-38.5"/>
<text text-anchor="middle" x="154" y="-45.5" font-family="Helvetica,sans-Serif" font-size="10.00">Utilities</text>
</a>
</g>
</g>
<!-- Node0&#45;&gt;Node5 -->
<g id="edge5" class="edge"><title>Node0&#45;&gt;Node5</title>
<path fill="none" stroke="midnightblue" d="M69.6093,-90.8223C89.8022,-80.4529 116.651,-66.6657 134.36,-57.5716"/>
<polygon fill="midnightblue" stroke="midnightblue" points="67.8758,-87.7779 60.5789,-95.4595 71.0734,-94.0049 67.8758,-87.7779"/>
</g>
<!-- Node6 -->
<g id="node7" class="node"><title>Node6</title>
<g id="a_node7"><a xlink:href="group__libsensors__tests.html" target="_top" xlink:title="Unit tests for Sensors library. ">
<polygon fill="none" stroke="black" points="124.5,-0.5 124.5,-19.5 183.5,-19.5 183.5,-0.5 124.5,-0.5"/>
<text text-anchor="middle" x="154" y="-7.5" font-family="Helvetica,sans-Serif" font-size="10.00">Unit tests</text>
</a>
</g>
</g>
<!-- Node0&#45;&gt;Node6 -->
<g id="edge6" class="edge"><title>Node0&#45;&gt;Node6</title>
<path fill="none" stroke="midnightblue" d="M56.8618,-87.4588C71.3522,-71.0431 94.5727,-46.4926 118,-29 122.543,-25.608 127.766,-22.4396 132.769,-19.6996"/>
<polygon fill="midnightblue" stroke="midnightblue" points="54.0363,-85.3746 50.1251,-95.2211 59.3229,-89.9628 54.0363,-85.3746"/>
</g>
</g>
</svg>
