<?xml version="1.0" encoding="UTF-8" standalone="no"?>
<!DOCTYPE svg PUBLIC "-//W3C//DTD SVG 1.1//EN"
 "http://www.w3.org/Graphics/SVG/1.1/DTD/svg11.dtd">
<!-- Generated by graphviz version 2.38.0 (20140413.2041)
 -->
<!-- Title: Hardware/target specific Pages: 1 -->
<svg width="290pt" height="104pt"
 viewBox="0.00 0.00 290.00 104.00" xmlns="http://www.w3.org/2000/svg" xmlns:xlink="http://www.w3.org/1999/xlink">
<g id="graph0" class="graph" transform="scale(1 1) rotate(0) translate(4 100)">
<title>Hardware/target specific</title>
<!-- Node2 -->
<g id="node1" class="node"><title>Node2</title>
<g id="a_node1"><a xlink:href="group__application.html" target="_top" xlink:title="The main weather station application utilizing Sensors library and AVR C++ utilities library...">
<polygon fill="none" stroke="black" points="177,-76.5 177,-95.5 264,-95.5 264,-76.5 177,-76.5"/>
<text text-anchor="middle" x="220.5" y="-83.5" font-family="Helvetica,sans-Serif" font-size="10.00">Main application</text>
</a>
</g>
</g>
<!-- Node3 -->
<g id="node2" class="node"><title>Node3</title>
<g id="a_node2"><a xlink:href="group__targets.html" target="_top" xlink:title="Supported targets. ">
<polygon fill="none" stroke="black" points="173.5,-38.5 173.5,-57.5 267.5,-57.5 267.5,-38.5 173.5,-38.5"/>
<text text-anchor="middle" x="220.5" y="-45.5" font-family="Helvetica,sans-Serif" font-size="10.00">Supported targets</text>
</a>
</g>
</g>
<!-- Node1 -->
<g id="node3" class="node"><title>Node1</title>
<g id="a_node3"><a xlink:href="group__libtarget.html" target="_top" xlink:title="AVR dependent utilities for usage with C++. ">
<polygon fill="none" stroke="black" points="159,-0.5 159,-19.5 282,-19.5 282,-0.5 159,-0.5"/>
<text text-anchor="middle" x="220.5" y="-7.5" font-family="Helvetica,sans-Serif" font-size="10.00">AVR C++ utilities library</text>
</a>
</g>
</g>
<!-- Node0 -->
<g id="node4" class="node"><title>Node0</title>
<polygon fill="#bfbfbf" stroke="black" points="0,-38.5 0,-57.5 123,-57.5 123,-38.5 0,-38.5"/>
<text text-anchor="middle" x="61.5" y="-45.5" font-family="Helvetica,sans-Serif" font-size="10.00">Hardware/target specific</text>
</g>
<!-- Node0&#45;&gt;Node2 -->
<g id="edge2" class="edge"><title>Node0&#45;&gt;Node2</title>
<path fill="none" stroke="black" d="M111.947,-59.968C133.948,-65.2931 159.494,-71.4762 180.167,-76.4799"/>
<polygon fill="black" stroke="black" points="112.66,-56.5398 102.118,-57.589 111.014,-63.3433 112.66,-56.5398"/>
</g>
<!-- Node0&#45;&gt;Node3 -->
<g id="edge3" class="edge"><title>Node0&#45;&gt;Node3</title>
<path fill="none" stroke="black" d="M133.408,-48C146.867,-48 160.627,-48 173.085,-48"/>
<polygon fill="black" stroke="black" points="133.2,-44.5001 123.2,-48 133.2,-51.5001 133.2,-44.5001"/>
</g>
<!-- Node0&#45;&gt;Node1 -->
<g id="edge1" class="edge"><title>Node0&#45;&gt;Node1</title>
<path fill="none" stroke="black" d="M111.947,-36.032C133.948,-30.7069 159.494,-24.5238 180.167,-19.5201"/>
<polygon fill="black" stroke="black" points="111.014,-32.6567 102.118,-38.411 112.66,-39.4602 111.014,-32.6567"/>
</g>
</g>
</svg>
