<?xml version="1.0" encoding="UTF-8" standalone="no"?>
<!DOCTYPE svg PUBLIC "-//W3C//DTD SVG 1.1//EN"
 "http://www.w3.org/Graphics/SVG/1.1/DTD/svg11.dtd">
<!-- Generated by graphviz version 2.38.0 (20140413.2041)
 -->
<!-- Title: AVR C++ utilities library Pages: 1 -->
<svg width="460pt" height="279pt"
 viewBox="0.00 0.00 460.00 278.50" xmlns="http://www.w3.org/2000/svg" xmlns:xlink="http://www.w3.org/1999/xlink">
<g id="graph0" class="graph" transform="scale(1 1) rotate(0) translate(4 274.5)">
<title>AVR C++ utilities library</title>
<!-- Node3 -->
<g id="node1" class="node"><title>Node3</title>
<g id="a_node1"><a xlink:href="group__libtarget__atomic.html" target="_top" xlink:title="Utilities for ensuring atomic / non atomic execution of code blocks. ">
<polygon fill="none" stroke="black" points="339,-251 339,-270 431,-270 431,-251 339,-251"/>
<text text-anchor="middle" x="385" y="-258" font-family="Helvetica,sans-Serif" font-size="10.00">Atomic execution</text>
</a>
</g>
</g>
<!-- Node5 -->
<g id="node2" class="node"><title>Node5</title>
<g id="a_node2"><a xlink:href="group__libtarget__interrupt.html" target="_top" xlink:title="Utilities for interrupt service routines. ">
<polygon fill="none" stroke="black" points="339,-213 339,-232 431,-232 431,-213 339,-213"/>
<text text-anchor="middle" x="385" y="-220" font-family="Helvetica,sans-Serif" font-size="10.00">Interrupt handling</text>
</a>
</g>
</g>
<!-- Node8 -->
<g id="node3" class="node"><title>Node8</title>
<g id="a_node3"><a xlink:href="group__libtarget__uart.html" target="_top" xlink:title="Wrapper for accessing built&#45;in UART communication interfaces. ">
<polygon fill="none" stroke="black" points="345.5,-175 345.5,-194 424.5,-194 424.5,-175 345.5,-175"/>
<text text-anchor="middle" x="385" y="-182" font-family="Helvetica,sans-Serif" font-size="10.00">UART module</text>
</a>
</g>
</g>
<!-- Node6 -->
<g id="node4" class="node"><title>Node6</title>
<g id="a_node4"><a xlink:href="group__libtarget__pin.html" target="_top" xlink:title="Wrapper for accessing digital I/O ports. ">
<polygon fill="none" stroke="black" points="352.5,-137 352.5,-156 417.5,-156 417.5,-137 352.5,-137"/>
<text text-anchor="middle" x="385" y="-144" font-family="Helvetica,sans-Serif" font-size="10.00">Pin module</text>
</a>
</g>
</g>
<!-- Node7 -->
<g id="node5" class="node"><title>Node7</title>
<g id="a_node5"><a xlink:href="group__libtarget__timer.html" target="_top" xlink:title="Wrapper for accessing built&#45;in timers facilities. ">
<polygon fill="none" stroke="black" points="347,-99 347,-118 423,-118 423,-99 347,-99"/>
<text text-anchor="middle" x="385" y="-106" font-family="Helvetica,sans-Serif" font-size="10.00">Timer module</text>
</a>
</g>
</g>
<!-- Node0 -->
<g id="node6" class="node"><title>Node0</title>
<polygon fill="#bfbfbf" stroke="black" points="159,-137 159,-156 282,-156 282,-137 159,-137"/>
<text text-anchor="middle" x="220.5" y="-144" font-family="Helvetica,sans-Serif" font-size="10.00">AVR C++ utilities library</text>
</g>
<!-- Node0&#45;&gt;Node3 -->
<g id="edge3" class="edge"><title>Node0&#45;&gt;Node3</title>
<path fill="none" stroke="black" d="M234.757,-164.111C251.753,-185.48 283.214,-221.168 318,-241.5 324.588,-245.351 332.007,-248.464 339.43,-250.967"/>
<polygon fill="black" stroke="black" points="237.485,-161.918 228.584,-156.171 231.959,-166.214 237.485,-161.918"/>
</g>
<!-- Node0&#45;&gt;Node5 -->
<g id="edge5" class="edge"><title>Node0&#45;&gt;Node5</title>
<path fill="none" stroke="black" d="M243.825,-161.901C262.851,-174.474 291.28,-191.985 318,-203.5 326.432,-207.134 335.762,-210.3 344.688,-212.952"/>
<polygon fill="black" stroke="black" points="245.544,-158.839 235.29,-156.174 241.643,-164.652 245.544,-158.839"/>
</g>
<!-- Node0&#45;&gt;Node8 -->
<g id="edge8" class="edge"><title>Node0&#45;&gt;Node8</title>
<path fill="none" stroke="black" d="M272.326,-158.385C295.875,-163.892 323.409,-170.331 345.245,-175.437"/>
<polygon fill="black" stroke="black" points="273.04,-154.958 262.506,-156.089 271.446,-161.774 273.04,-154.958"/>
</g>
<!-- Node0&#45;&gt;Node6 -->
<g id="edge6" class="edge"><title>Node0&#45;&gt;Node6</title>
<path fill="none" stroke="black" d="M292.185,-146.5C313.122,-146.5 335.01,-146.5 352.162,-146.5"/>
<polygon fill="black" stroke="black" points="292.009,-143 282.009,-146.5 292.009,-150 292.009,-143"/>
</g>
<!-- Node0&#45;&gt;Node7 -->
<g id="edge7" class="edge"><title>Node0&#45;&gt;Node7</title>
<path fill="none" stroke="black" d="M272.55,-134.562C296.648,-128.927 324.879,-122.325 346.897,-117.176"/>
<polygon fill="black" stroke="black" points="271.446,-131.226 262.506,-136.911 273.04,-138.042 271.446,-131.226"/>
</g>
<!-- Node2 -->
<g id="node8" class="node"><title>Node2</title>
<g id="a_node8"><a xlink:href="group__libtarget__adc.html" target="_top" xlink:title="Wrapper for accessing built&#45;in analog to digital conversion facilities. ">
<polygon fill="none" stroke="black" points="318,-49.5 318,-79.5 452,-79.5 452,-49.5 318,-49.5"/>
<text text-anchor="start" x="326" y="-67.5" font-family="Helvetica,sans-Serif" font-size="10.00">Analog to Digital Converter</text>
<text text-anchor="middle" x="385" y="-56.5" font-family="Helvetica,sans-Serif" font-size="10.00"> (ADC)</text>
</a>
</g>
</g>
<!-- Node0&#45;&gt;Node2 -->
<g id="edge2" class="edge"><title>Node0&#45;&gt;Node2</title>
<path fill="none" stroke="black" d="M244.746,-131.237C263.916,-119.029 292.075,-101.953 318,-89.5 325.289,-85.9984 333.207,-82.6407 340.945,-79.5853"/>
<polygon fill="black" stroke="black" points="242.622,-128.442 236.107,-136.797 246.41,-134.328 242.622,-128.442"/>
</g>
<!-- Node4 -->
<g id="node9" class="node"><title>Node4</title>
<g id="a_node9"><a xlink:href="group__libtarget__dht22.html" target="_top" xlink:title="Avr::Dht22 decodes data from DHT22 / AM2302 Temperature and Humidity sensors. ">
<polygon fill="none" stroke="black" points="330.5,-0.5 330.5,-30.5 439.5,-30.5 439.5,-0.5 330.5,-0.5"/>
<text text-anchor="start" x="338.5" y="-18.5" font-family="Helvetica,sans-Serif" font-size="10.00">DHT22 Temperature </text>
<text text-anchor="middle" x="385" y="-7.5" font-family="Helvetica,sans-Serif" font-size="10.00">/ Humidity sensor</text>
</a>
</g>
</g>
<!-- Node0&#45;&gt;Node4 -->
<g id="edge4" class="edge"><title>Node0&#45;&gt;Node4</title>
<path fill="none" stroke="black" d="M233.522,-128.407C250.004,-104.884 281.736,-63.9312 318,-39.5 322.955,-36.162 328.431,-33.2225 334.047,-30.6513"/>
<polygon fill="black" stroke="black" points="230.555,-126.546 227.79,-136.773 236.33,-130.502 230.555,-126.546"/>
</g>
<!-- Node1 -->
<g id="node7" class="node"><title>Node1</title>
<g id="a_node7"><a xlink:href="group__target.html" target="_top" xlink:title="AVR dependent code. ">
<polygon fill="none" stroke="black" points="0,-137 0,-156 123,-156 123,-137 0,-137"/>
<text text-anchor="middle" x="61.5" y="-144" font-family="Helvetica,sans-Serif" font-size="10.00">Hardware/target specific</text>
</a>
</g>
</g>
<!-- Node1&#45;&gt;Node0 -->
<g id="edge1" class="edge"><title>Node1&#45;&gt;Node0</title>
<path fill="none" stroke="black" d="M133.21,-146.5C141.807,-146.5 150.53,-146.5 158.961,-146.5"/>
<polygon fill="black" stroke="black" points="133.2,-143 123.2,-146.5 133.2,-150 133.2,-143"/>
</g>
</g>
</svg>
