<?xml version="1.0" encoding="UTF-8" standalone="no"?>
<!DOCTYPE svg PUBLIC "-//W3C//DTD SVG 1.1//EN"
 "http://www.w3.org/Graphics/SVG/1.1/DTD/svg11.dtd">
<!-- Generated by graphviz version 2.38.0 (20140413.2041)
 -->
<!-- Title: RF Sensors Pages: 1 -->
<svg width="303pt" height="142pt"
 viewBox="0.00 0.00 303.00 142.00" xmlns="http://www.w3.org/2000/svg" xmlns:xlink="http://www.w3.org/1999/xlink">
<g id="graph0" class="graph" transform="scale(1 1) rotate(0) translate(4 138)">
<title>RF Sensors</title>
<!-- Node5 -->
<g id="node1" class="node"><title>Node5</title>
<g id="a_node1"><a xlink:href="group__libsensors__sensor.html" target="_top" xlink:title="Sensors::Sensor is the base class for sensor specific data decoding. ">
<polygon fill="none" stroke="black" points="235.5,-114.5 235.5,-133.5 282.5,-133.5 282.5,-114.5 235.5,-114.5"/>
<text text-anchor="middle" x="259" y="-121.5" font-family="Helvetica,sans-Serif" font-size="10.00">Sensor</text>
</a>
</g>
</g>
<!-- Node2 -->
<g id="node2" class="node"><title>Node2</title>
<g id="a_node2"><a xlink:href="group__libsensors__bitdecoder.html" target="_top" xlink:title="Sensors::BitDecoder transforms continuous bit streams (for example from RF demodulation) into bytes...">
<polygon fill="none" stroke="black" points="225,-76.5 225,-95.5 293,-95.5 293,-76.5 225,-76.5"/>
<text text-anchor="middle" x="259" y="-83.5" font-family="Helvetica,sans-Serif" font-size="10.00">Bit Decoder</text>
</a>
</g>
</g>
<!-- Node4 -->
<g id="node3" class="node"><title>Node4</title>
<g id="a_node3"><a xlink:href="group__libsensors__rfdevice.html" target="_top" xlink:title="Sensors::RfDevice is the base template for RF receivers connecting Demodulator, Bit Decoder and Senso...">
<polygon fill="none" stroke="black" points="227,-38.5 227,-57.5 291,-57.5 291,-38.5 227,-38.5"/>
<text text-anchor="middle" x="259" y="-45.5" font-family="Helvetica,sans-Serif" font-size="10.00">RF Device</text>
</a>
</g>
</g>
<!-- Node0 -->
<g id="node4" class="node"><title>Node0</title>
<polygon fill="#bfbfbf" stroke="black" points="118,-57.5 118,-76.5 187,-76.5 187,-57.5 118,-57.5"/>
<text text-anchor="middle" x="152.5" y="-64.5" font-family="Helvetica,sans-Serif" font-size="10.00">RF Sensors</text>
</g>
<!-- Node0&#45;&gt;Node5 -->
<g id="edge5" class="edge"><title>Node0&#45;&gt;Node5</title>
<path fill="none" stroke="black" d="M179.796,-81.4021C192.793,-88.5141 208.716,-97.2177 223,-105 228.586,-108.043 234.677,-111.353 240.189,-114.345"/>
<polygon fill="black" stroke="black" points="181.367,-78.2721 170.915,-76.5407 178.006,-84.4124 181.367,-78.2721"/>
</g>
<!-- Node0&#45;&gt;Node2 -->
<g id="edge2" class="edge"><title>Node0&#45;&gt;Node2</title>
<path fill="none" stroke="black" d="M197.008,-74.9105C206.292,-76.5986 215.956,-78.3556 224.781,-79.9601"/>
<polygon fill="black" stroke="black" points="197.605,-71.4617 187.14,-73.1163 196.352,-78.3488 197.605,-71.4617"/>
</g>
<!-- Node0&#45;&gt;Node4 -->
<g id="edge4" class="edge"><title>Node0&#45;&gt;Node4</title>
<path fill="none" stroke="black" d="M196.979,-59.0948C207.023,-57.2685 217.513,-55.3613 226.905,-53.6536"/>
<polygon fill="black" stroke="black" points="196.352,-55.6512 187.14,-60.8837 197.605,-62.5383 196.352,-55.6512"/>
</g>
<!-- Node3 -->
<g id="node6" class="node"><title>Node3</title>
<g id="a_node6"><a xlink:href="group__libsensors__demodulator.html" target="_top" xlink:title="Sensors::Demodulator transforms continuous streams with pulse widths (for example from RF receivers) ...">
<polygon fill="none" stroke="black" points="223,-0.5 223,-19.5 295,-19.5 295,-0.5 223,-0.5"/>
<text text-anchor="middle" x="259" y="-7.5" font-family="Helvetica,sans-Serif" font-size="10.00">Demodulator</text>
</a>
</g>
</g>
<!-- Node0&#45;&gt;Node3 -->
<g id="edge3" class="edge"><title>Node0&#45;&gt;Node3</title>
<path fill="none" stroke="black" d="M179.796,-52.5979C192.793,-45.4859 208.716,-36.7823 223,-29 228.586,-25.9569 234.677,-22.6471 240.189,-19.6554"/>
<polygon fill="black" stroke="black" points="178.006,-49.5876 170.915,-57.4593 181.367,-55.7279 178.006,-49.5876"/>
</g>
<!-- Node1 -->
<g id="node5" class="node"><title>Node1</title>
<g id="a_node5"><a xlink:href="group__libsensors.html" target="_top" xlink:title="Target / platform independent functionality and algorithms such as sensor decoders and utilities for ...">
<polygon fill="none" stroke="black" points="0,-57.5 0,-76.5 82,-76.5 82,-57.5 0,-57.5"/>
<text text-anchor="middle" x="41" y="-64.5" font-family="Helvetica,sans-Serif" font-size="10.00">Sensors library</text>
</a>
</g>
</g>
<!-- Node1&#45;&gt;Node0 -->
<g id="edge1" class="edge"><title>Node1&#45;&gt;Node0</title>
<path fill="none" stroke="black" d="M92.2158,-67C100.893,-67 109.724,-67 117.828,-67"/>
<polygon fill="black" stroke="black" points="92.152,-63.5001 82.152,-67 92.152,-70.5001 92.152,-63.5001"/>
</g>
</g>
</svg>
