<?xml version="1.0" encoding="UTF-8" standalone="no"?>
<!DOCTYPE svg PUBLIC "-//W3C//DTD SVG 1.1//EN"
 "http://www.w3.org/Graphics/SVG/1.1/DTD/svg11.dtd">
<!-- Generated by graphviz version 2.38.0 (20140413.2041)
 -->
<!-- Title: lib/hidekisensor.h Pages: 1 -->
<svg width="402pt" height="84pt"
 viewBox="0.00 0.00 401.50 84.00" xmlns="http://www.w3.org/2000/svg" xmlns:xlink="http://www.w3.org/1999/xlink">
<g id="graph0" class="graph" transform="scale(1 1) rotate(0) translate(4 80)">
<title>lib/hidekisensor.h</title>
<!-- Node0 -->
<g id="node1" class="node"><title>Node0</title>
<polygon fill="#bfbfbf" stroke="black" points="124,-56.5 124,-75.5 216,-75.5 216,-56.5 124,-56.5"/>
<text text-anchor="middle" x="170" y="-63.5" font-family="Helvetica,sans-Serif" font-size="10.00">lib/hidekisensor.h</text>
</g>
<!-- Node1 -->
<g id="node2" class="node"><title>Node1</title>
<g id="a_node2"><a xlink:href="main_8cpp.html" target="_top" xlink:title="The main weather station application utilizing Sensors library and AVR C++ utilities library...">
<polygon fill="none" stroke="black" points="0,-0.5 0,-19.5 84,-19.5 84,-0.5 0,-0.5"/>
<text text-anchor="middle" x="42" y="-7.5" font-family="Helvetica,sans-Serif" font-size="10.00">target/main.cpp</text>
</a>
</g>
</g>
<!-- Node0&#45;&gt;Node1 -->
<g id="edge1" class="edge"><title>Node0&#45;&gt;Node1</title>
<path fill="none" stroke="midnightblue" d="M140.377,-52.503C116.381,-42.3795 83.216,-28.388 62.1871,-19.5164"/>
<polygon fill="midnightblue" stroke="midnightblue" points="139.144,-55.7813 149.718,-56.4435 141.865,-49.3317 139.144,-55.7813"/>
</g>
<!-- Node2 -->
<g id="node3" class="node"><title>Node2</title>
<g id="a_node3"><a xlink:href="test__hidekidevice_8cpp.html" target="_top" xlink:title="Unit tests for Sensors::HidekiDevice. ">
<polygon fill="none" stroke="black" points="102,-0.5 102,-19.5 238,-19.5 238,-0.5 102,-0.5"/>
<text text-anchor="middle" x="170" y="-7.5" font-family="Helvetica,sans-Serif" font-size="10.00">tests/test_hidekidevice.cpp</text>
</a>
</g>
</g>
<!-- Node0&#45;&gt;Node2 -->
<g id="edge2" class="edge"><title>Node0&#45;&gt;Node2</title>
<path fill="none" stroke="midnightblue" d="M170,-45.8045C170,-36.9102 170,-26.7798 170,-19.7511"/>
<polygon fill="midnightblue" stroke="midnightblue" points="166.5,-46.083 170,-56.083 173.5,-46.083 166.5,-46.083"/>
</g>
<!-- Node3 -->
<g id="node4" class="node"><title>Node3</title>
<g id="a_node4"><a xlink:href="test__hidekisensor_8cpp.html" target="_top" xlink:title="Unit tests for Sensors::HidekiSensor. ">
<polygon fill="none" stroke="black" points="256.5,-0.5 256.5,-19.5 393.5,-19.5 393.5,-0.5 256.5,-0.5"/>
<text text-anchor="middle" x="325" y="-7.5" font-family="Helvetica,sans-Serif" font-size="10.00">tests/test_hidekisensor.cpp</text>
</a>
</g>
</g>
<!-- Node0&#45;&gt;Node3 -->
<g id="edge3" class="edge"><title>Node0&#45;&gt;Node3</title>
<path fill="none" stroke="midnightblue" d="M204.332,-53.0392C233.497,-42.8786 274.637,-28.5457 300.555,-19.5164"/>
<polygon fill="midnightblue" stroke="midnightblue" points="202.852,-49.8484 194.56,-56.4435 205.155,-56.4587 202.852,-49.8484"/>
</g>
</g>
</svg>
