<?xml version="1.0" encoding="UTF-8" standalone="no"?>
<!DOCTYPE svg PUBLIC "-//W3C//DTD SVG 1.1//EN"
 "http://www.w3.org/Graphics/SVG/1.1/DTD/svg11.dtd">
<!-- Generated by graphviz version 2.38.0 (20140413.2041)
 -->
<!-- Title: target/lib/i2c.h Pages: 1 -->
<svg width="234pt" height="140pt"
 viewBox="0.00 0.00 233.50 140.00" xmlns="http://www.w3.org/2000/svg" xmlns:xlink="http://www.w3.org/1999/xlink">
<g id="graph0" class="graph" transform="scale(1 1) rotate(0) translate(4 136)">
<title>target/lib/i2c.h</title>
<!-- Node0 -->
<g id="node1" class="node"><title>Node0</title>
<polygon fill="#bfbfbf" stroke="black" points="72,-112.5 72,-131.5 150,-131.5 150,-112.5 72,-112.5"/>
<text text-anchor="middle" x="111" y="-119.5" font-family="Helvetica,sans-Serif" font-size="10.00">target/lib/i2c.h</text>
</g>
<!-- Node1 -->
<g id="node2" class="node"><title>Node1</title>
<g id="a_node2"><a xlink:href="bmp180_8h.html" target="_top" xlink:title="Avr::Bmp180 decodes data from Bosch BMP180 Digital pressure sensors. ">
<polygon fill="none" stroke="black" points="0,-56.5 0,-75.5 100,-75.5 100,-56.5 0,-56.5"/>
<text text-anchor="middle" x="50" y="-63.5" font-family="Helvetica,sans-Serif" font-size="10.00">target/lib/bmp180.h</text>
</a>
</g>
</g>
<!-- Node0&#45;&gt;Node1 -->
<g id="edge1" class="edge"><title>Node0&#45;&gt;Node1</title>
<path fill="none" stroke="midnightblue" d="M93.5328,-105.537C82.6562,-95.9087 69.0561,-83.8694 59.979,-75.8339"/>
<polygon fill="midnightblue" stroke="midnightblue" points="91.3917,-108.316 101.199,-112.324 96.0316,-103.075 91.3917,-108.316"/>
</g>
<!-- Node3 -->
<g id="node4" class="node"><title>Node3</title>
<g id="a_node4"><a xlink:href="mlx90614_8h.html" target="_top" xlink:title="Avr::Mlx90614 decodes data from Melexis MLX90614 Infrared thermometer sensors. ">
<polygon fill="none" stroke="black" points="118.5,-56.5 118.5,-75.5 225.5,-75.5 225.5,-56.5 118.5,-56.5"/>
<text text-anchor="middle" x="172" y="-63.5" font-family="Helvetica,sans-Serif" font-size="10.00">target/lib/mlx90614.h</text>
</a>
</g>
</g>
<!-- Node0&#45;&gt;Node3 -->
<g id="edge3" class="edge"><title>Node0&#45;&gt;Node3</title>
<path fill="none" stroke="midnightblue" d="M128.467,-105.537C139.344,-95.9087 152.944,-83.8694 162.021,-75.8339"/>
<polygon fill="midnightblue" stroke="midnightblue" points="125.968,-103.075 120.801,-112.324 130.608,-108.316 125.968,-103.075"/>
</g>
<!-- Node2 -->
<g id="node3" class="node"><title>Node2</title>
<g id="a_node3"><a xlink:href="main_8cpp.html" target="_top" xlink:title="The main weather station application utilizing Sensors library and AVR C++ utilities library...">
<polygon fill="none" stroke="black" points="69,-0.5 69,-19.5 153,-19.5 153,-0.5 69,-0.5"/>
<text text-anchor="middle" x="111" y="-7.5" font-family="Helvetica,sans-Serif" font-size="10.00">target/main.cpp</text>
</a>
</g>
</g>
<!-- Node1&#45;&gt;Node2 -->
<g id="edge2" class="edge"><title>Node1&#45;&gt;Node2</title>
<path fill="none" stroke="midnightblue" d="M67.4672,-49.5372C78.3438,-39.9087 91.9439,-27.8694 101.021,-19.8339"/>
<polygon fill="midnightblue" stroke="midnightblue" points="64.9684,-47.0749 59.8007,-56.324 69.6083,-52.3162 64.9684,-47.0749"/>
</g>
<!-- Node3&#45;&gt;Node2 -->
<g id="edge4" class="edge"><title>Node3&#45;&gt;Node2</title>
<path fill="none" stroke="midnightblue" d="M154.533,-49.5372C143.656,-39.9087 130.056,-27.8694 120.979,-19.8339"/>
<polygon fill="midnightblue" stroke="midnightblue" points="152.392,-52.3162 162.199,-56.324 157.032,-47.0749 152.392,-52.3162"/>
</g>
</g>
</svg>
