<?xml version="1.0" encoding="UTF-8" standalone="no"?>
<!DOCTYPE svg PUBLIC "-//W3C//DTD SVG 1.1//EN"
 "http://www.w3.org/Graphics/SVG/1.1/DTD/svg11.dtd">
<!-- Generated by graphviz version 2.38.0 (20140413.2041)
 -->
<!-- Title: Graphical Class Hierarchy Pages: 1 -->
<svg width="329pt" height="258pt"
 viewBox="0.00 0.00 329.00 258.00" xmlns="http://www.w3.org/2000/svg" xmlns:xlink="http://www.w3.org/1999/xlink">
<g id="graph0" class="graph" transform="scale(1 1) rotate(0) translate(4 254)">
<title>Graphical Class Hierarchy</title>
<!-- Node32 -->
<g id="node1" class="node"><title>Node32</title>
<g id="a_node1"><a xlink:href="group__libtarget__pin.html#structAvr_1_1InputConfiguration" target="_top" xlink:title="Input configuration parameter for pin (normal mode). ">
<polygon fill="none" stroke="black" points="12.5,-159 12.5,-189 142.5,-189 142.5,-159 12.5,-159"/>
<text text-anchor="start" x="20.5" y="-177" font-family="Helvetica,sans-Serif" font-size="10.00">Avr::InputConfiguration</text>
<text text-anchor="middle" x="77.5" y="-166" font-family="Helvetica,sans-Serif" font-size="10.00">&lt; TDigitalIo, pinNumber &gt;</text>
</a>
</g>
</g>
<!-- Node18 -->
<g id="node2" class="node"><title>Node18</title>
<g id="a_node2"><a xlink:href="group__libtarget__pin.html#structAvr_1_1InputOutputPin" target="_top" xlink:title="Input / Output pin (initially configured as output pin). ">
<polygon fill="none" stroke="black" points="191,-110 191,-140 321,-140 321,-110 191,-110"/>
<text text-anchor="start" x="199" y="-128" font-family="Helvetica,sans-Serif" font-size="10.00">Avr::InputOutputPin</text>
<text text-anchor="middle" x="256" y="-117" font-family="Helvetica,sans-Serif" font-size="10.00">&lt; TDigitalIo, pinNumber &gt;</text>
</a>
</g>
</g>
<!-- Node32&#45;&gt;Node18 -->
<g id="edge1" class="edge"><title>Node32&#45;&gt;Node18</title>
<path fill="none" stroke="midnightblue" d="M142.693,-156.179C161.75,-150.888 182.427,-145.148 200.784,-140.052"/>
<polygon fill="midnightblue" stroke="midnightblue" points="141.595,-152.851 132.896,-158.899 143.468,-159.596 141.595,-152.851"/>
</g>
<!-- Node16 -->
<g id="node3" class="node"><title>Node16</title>
<g id="a_node3"><a xlink:href="group__libtarget__pin.html#structAvr_1_1InputPin" target="_top" xlink:title="Input pin. ">
<polygon fill="none" stroke="black" points="192,-186 192,-216 320,-216 320,-186 192,-186"/>
<text text-anchor="start" x="200" y="-204" font-family="Helvetica,sans-Serif" font-size="10.00">Avr::InputPin&lt; TDigitalIo,</text>
<text text-anchor="middle" x="256" y="-193" font-family="Helvetica,sans-Serif" font-size="10.00"> pinNumber &gt;</text>
</a>
</g>
</g>
<!-- Node32&#45;&gt;Node16 -->
<g id="edge2" class="edge"><title>Node32&#45;&gt;Node16</title>
<path fill="none" stroke="midnightblue" d="M152.954,-185.39C165.851,-187.362 179.15,-189.397 191.714,-191.319"/>
<polygon fill="midnightblue" stroke="midnightblue" points="153.134,-181.876 142.72,-183.824 152.076,-188.796 153.134,-181.876"/>
</g>
<!-- Node31 -->
<g id="node4" class="node"><title>Node31</title>
<g id="a_node4"><a xlink:href="group__libtarget__pin.html#structAvr_1_1InputConfigurationDisabled" target="_top" xlink:title="Input configuration parameter for pin (disabled). ">
<polygon fill="none" stroke="black" points="0,-61 0,-91 155,-91 155,-61 0,-61"/>
<text text-anchor="start" x="8" y="-79" font-family="Helvetica,sans-Serif" font-size="10.00">Avr::InputConfigurationDisabled</text>
<text text-anchor="middle" x="77.5" y="-68" font-family="Helvetica,sans-Serif" font-size="10.00">&lt; TDigitalIo, pinNumber &gt;</text>
</a>
</g>
</g>
<!-- Node19 -->
<g id="node5" class="node"><title>Node19</title>
<g id="a_node5"><a xlink:href="group__libtarget__pin.html#structAvr_1_1OutputPin" target="_top" xlink:title="Output pin (normal mode). ">
<polygon fill="none" stroke="black" points="194,-61 194,-91 318,-91 318,-61 194,-61"/>
<text text-anchor="start" x="202" y="-79" font-family="Helvetica,sans-Serif" font-size="10.00">Avr::OutputPin&lt; TDigital</text>
<text text-anchor="middle" x="256" y="-68" font-family="Helvetica,sans-Serif" font-size="10.00">Io, pinNumber &gt;</text>
</a>
</g>
</g>
<!-- Node31&#45;&gt;Node19 -->
<g id="edge3" class="edge"><title>Node31&#45;&gt;Node19</title>
<path fill="none" stroke="midnightblue" d="M165.195,-76C174.866,-76 184.562,-76 193.818,-76"/>
<polygon fill="midnightblue" stroke="midnightblue" points="165.145,-72.5001 155.145,-76 165.145,-79.5001 165.145,-72.5001"/>
</g>
<!-- Node1 -->
<g id="node6" class="node"><title>Node1</title>
<g id="a_node6"><a xlink:href="group__libtarget__pin.html#structAvr_1_1OutputPinInverted" target="_top" xlink:title="Inverted output pin (active low configuration). ">
<polygon fill="none" stroke="black" points="191,-9 191,-39 321,-39 321,-9 191,-9"/>
<text text-anchor="start" x="199" y="-27" font-family="Helvetica,sans-Serif" font-size="10.00">Avr::OutputPinInverted</text>
<text text-anchor="middle" x="256" y="-16" font-family="Helvetica,sans-Serif" font-size="10.00">&lt; TDigitalIo, pinNumber &gt;</text>
</a>
</g>
</g>
<!-- Node31&#45;&gt;Node1 -->
<g id="edge4" class="edge"><title>Node31&#45;&gt;Node1</title>
<path fill="none" stroke="midnightblue" d="M139.373,-58.0656C160.46,-51.8532 183.861,-44.9589 204.064,-39.0068"/>
<polygon fill="midnightblue" stroke="midnightblue" points="138.154,-54.776 129.551,-60.9594 140.133,-61.4906 138.154,-54.776"/>
</g>
<!-- Node17 -->
<g id="node7" class="node"><title>Node17</title>
<g id="a_node7"><a xlink:href="group__libtarget__pin.html#structAvr_1_1OutputConfiguration" target="_top" xlink:title="Output configuration parameter for pin (normal mode). ">
<polygon fill="none" stroke="black" points="12.5,-110 12.5,-140 142.5,-140 142.5,-110 12.5,-110"/>
<text text-anchor="start" x="20.5" y="-128" font-family="Helvetica,sans-Serif" font-size="10.00">Avr::OutputConfiguration</text>
<text text-anchor="middle" x="77.5" y="-117" font-family="Helvetica,sans-Serif" font-size="10.00">&lt; TDigitalIo, pinNumber &gt;</text>
</a>
</g>
</g>
<!-- Node17&#45;&gt;Node18 -->
<g id="edge5" class="edge"><title>Node17&#45;&gt;Node18</title>
<path fill="none" stroke="midnightblue" d="M152.763,-125C165.416,-125 178.464,-125 190.828,-125"/>
<polygon fill="midnightblue" stroke="midnightblue" points="152.72,-121.5 142.72,-125 152.72,-128.5 152.72,-121.5"/>
</g>
<!-- Node17&#45;&gt;Node19 -->
<g id="edge6" class="edge"><title>Node17&#45;&gt;Node19</title>
<path fill="none" stroke="midnightblue" d="M142.693,-107.179C161.75,-101.888 182.427,-96.1478 200.784,-91.0516"/>
<polygon fill="midnightblue" stroke="midnightblue" points="141.595,-103.851 132.896,-109.899 143.468,-110.596 141.595,-103.851"/>
</g>
<!-- Node15 -->
<g id="node8" class="node"><title>Node15</title>
<g id="a_node8"><a xlink:href="group__libtarget__pin.html#structAvr_1_1OutputConfigurationDisabled" target="_top" xlink:title="Output configuration parameter for pin (disabled). ">
<polygon fill="none" stroke="black" points="15,-208.5 15,-249.5 140,-249.5 140,-208.5 15,-208.5"/>
<text text-anchor="start" x="23" y="-237.5" font-family="Helvetica,sans-Serif" font-size="10.00">Avr::OutputConfiguration</text>
<text text-anchor="start" x="23" y="-226.5" font-family="Helvetica,sans-Serif" font-size="10.00">Disabled&lt; TDigitalIo,</text>
<text text-anchor="middle" x="77.5" y="-215.5" font-family="Helvetica,sans-Serif" font-size="10.00"> pinNumber &gt;</text>
</a>
</g>
</g>
<!-- Node15&#45;&gt;Node16 -->
<g id="edge7" class="edge"><title>Node15&#45;&gt;Node16</title>
<path fill="none" stroke="midnightblue" d="M150.156,-217.632C163.951,-215.444 178.307,-213.167 191.809,-211.025"/>
<polygon fill="midnightblue" stroke="midnightblue" points="149.559,-214.183 140.231,-219.207 150.656,-221.097 149.559,-214.183"/>
</g>
<!-- Node0 -->
<g id="node9" class="node"><title>Node0</title>
<g id="a_node9"><a xlink:href="group__libtarget__pin.html#structAvr_1_1OutputConfigurationInverted" target="_top" xlink:title="Output configuration parameter for pin (for inverted output pins / active low configuration). ">
<polygon fill="none" stroke="black" points="15,-0.5 15,-41.5 140,-41.5 140,-0.5 15,-0.5"/>
<text text-anchor="start" x="23" y="-29.5" font-family="Helvetica,sans-Serif" font-size="10.00">Avr::OutputConfiguration</text>
<text text-anchor="start" x="23" y="-18.5" font-family="Helvetica,sans-Serif" font-size="10.00">Inverted&lt; TDigitalIo,</text>
<text text-anchor="middle" x="77.5" y="-7.5" font-family="Helvetica,sans-Serif" font-size="10.00"> pinNumber &gt;</text>
</a>
</g>
</g>
<!-- Node0&#45;&gt;Node1 -->
<g id="edge8" class="edge"><title>Node0&#45;&gt;Node1</title>
<path fill="none" stroke="midnightblue" d="M150.372,-22.2216C163.794,-22.4498 177.74,-22.6868 190.909,-22.9106"/>
<polygon fill="midnightblue" stroke="midnightblue" points="150.289,-18.7198 140.231,-22.0493 150.17,-25.7188 150.289,-18.7198"/>
</g>
</g>
</svg>
