<?xml version="1.0" encoding="UTF-8" standalone="no"?>
<!DOCTYPE svg PUBLIC "-//W3C//DTD SVG 1.1//EN"
 "http://www.w3.org/Graphics/SVG/1.1/DTD/svg11.dtd">
<!-- Generated by graphviz version 2.38.0 (20140413.2041)
 -->
<!-- Title: Graphical Class Hierarchy Pages: 1 -->
<svg width="329pt" height="256pt"
 viewBox="0.00 0.00 329.00 256.00" xmlns="http://www.w3.org/2000/svg" xmlns:xlink="http://www.w3.org/1999/xlink">
<g id="graph0" class="graph" transform="scale(1 1) rotate(0) translate(4 252)">
<title>Graphical Class Hierarchy</title>
<!-- Node1 -->
<g id="node1" class="node"><title>Node1</title>
<g id="a_node1"><a xlink:href="group__libtarget__pin.html#structAvr_1_1InputConfiguration" target="_top" xlink:title="Input configuration parameter for pin (normal mode). ">
<polygon fill="none" stroke="black" points="12.5,-158 12.5,-188 142.5,-188 142.5,-158 12.5,-158"/>
<text text-anchor="start" x="20.5" y="-176" font-family="Helvetica,sans-Serif" font-size="10.00">Avr::InputConfiguration</text>
<text text-anchor="middle" x="77.5" y="-165" font-family="Helvetica,sans-Serif" font-size="10.00">&lt; TDigitalIo, pinNumber &gt;</text>
</a>
</g>
</g>
<!-- Node2 -->
<g id="node2" class="node"><title>Node2</title>
<g id="a_node2"><a xlink:href="group__libtarget__pin.html#structAvr_1_1InputOutputPin" target="_top" xlink:title="Input / Output pin (initially configured as output pin). ">
<polygon fill="none" stroke="black" points="191,-109 191,-139 321,-139 321,-109 191,-109"/>
<text text-anchor="start" x="199" y="-127" font-family="Helvetica,sans-Serif" font-size="10.00">Avr::InputOutputPin</text>
<text text-anchor="middle" x="256" y="-116" font-family="Helvetica,sans-Serif" font-size="10.00">&lt; TDigitalIo, pinNumber &gt;</text>
</a>
</g>
</g>
<!-- Node1&#45;&gt;Node2 -->
<g id="edge1" class="edge"><title>Node1&#45;&gt;Node2</title>
<path fill="none" stroke="midnightblue" d="M142.693,-155.179C161.75,-149.888 182.427,-144.148 200.784,-139.052"/>
<polygon fill="midnightblue" stroke="midnightblue" points="141.595,-151.851 132.896,-157.899 143.468,-158.596 141.595,-151.851"/>
</g>
<!-- Node3 -->
<g id="node3" class="node"><title>Node3</title>
<g id="a_node3"><a xlink:href="group__libtarget__pin.html#structAvr_1_1InputPin" target="_top" xlink:title="Input pin. ">
<polygon fill="none" stroke="black" points="192,-185 192,-215 320,-215 320,-185 192,-185"/>
<text text-anchor="start" x="200" y="-203" font-family="Helvetica,sans-Serif" font-size="10.00">Avr::InputPin&lt; TDigitalIo,</text>
<text text-anchor="middle" x="256" y="-192" font-family="Helvetica,sans-Serif" font-size="10.00"> pinNumber &gt;</text>
</a>
</g>
</g>
<!-- Node1&#45;&gt;Node3 -->
<g id="edge2" class="edge"><title>Node1&#45;&gt;Node3</title>
<path fill="none" stroke="midnightblue" d="M152.954,-184.39C165.851,-186.362 179.15,-188.397 191.714,-190.319"/>
<polygon fill="midnightblue" stroke="midnightblue" points="153.134,-180.876 142.72,-182.824 152.076,-187.796 153.134,-180.876"/>
</g>
<!-- Node4 -->
<g id="node4" class="node"><title>Node4</title>
<g id="a_node4"><a xlink:href="group__libtarget__pin.html#structAvr_1_1InputConfigurationDisabled" target="_top" xlink:title="Input configuration parameter for pin (disabled). ">
<polygon fill="none" stroke="black" points="0,-60 0,-90 155,-90 155,-60 0,-60"/>
<text text-anchor="start" x="8" y="-78" font-family="Helvetica,sans-Serif" font-size="10.00">Avr::InputConfigurationDisabled</text>
<text text-anchor="middle" x="77.5" y="-67" font-family="Helvetica,sans-Serif" font-size="10.00">&lt; TDigitalIo, pinNumber &gt;</text>
</a>
</g>
</g>
<!-- Node5 -->
<g id="node5" class="node"><title>Node5</title>
<g id="a_node5"><a xlink:href="group__libtarget__pin.html#structAvr_1_1OutputPin" target="_top" xlink:title="Output pin (normal mode). ">
<polygon fill="none" stroke="black" points="194,-60 194,-90 318,-90 318,-60 194,-60"/>
<text text-anchor="start" x="202" y="-78" font-family="Helvetica,sans-Serif" font-size="10.00">Avr::OutputPin&lt; TDigital</text>
<text text-anchor="middle" x="256" y="-67" font-family="Helvetica,sans-Serif" font-size="10.00">Io, pinNumber &gt;</text>
</a>
</g>
</g>
<!-- Node4&#45;&gt;Node5 -->
<g id="edge3" class="edge"><title>Node4&#45;&gt;Node5</title>
<path fill="none" stroke="midnightblue" d="M165.195,-75C174.866,-75 184.562,-75 193.818,-75"/>
<polygon fill="midnightblue" stroke="midnightblue" points="165.145,-71.5001 155.145,-75 165.145,-78.5001 165.145,-71.5001"/>
</g>
<!-- Node6 -->
<g id="node6" class="node"><title>Node6</title>
<g id="a_node6"><a xlink:href="group__libtarget__pin.html#structAvr_1_1OutputPinInverted" target="_top" xlink:title="Inverted output pin (active low configuration). ">
<polygon fill="none" stroke="black" points="191,-8 191,-38 321,-38 321,-8 191,-8"/>
<text text-anchor="start" x="199" y="-26" font-family="Helvetica,sans-Serif" font-size="10.00">Avr::OutputPinInverted</text>
<text text-anchor="middle" x="256" y="-15" font-family="Helvetica,sans-Serif" font-size="10.00">&lt; TDigitalIo, pinNumber &gt;</text>
</a>
</g>
</g>
<!-- Node4&#45;&gt;Node6 -->
<g id="edge4" class="edge"><title>Node4&#45;&gt;Node6</title>
<path fill="none" stroke="midnightblue" d="M139.373,-57.0656C160.46,-50.8532 183.861,-43.9589 204.064,-38.0068"/>
<polygon fill="midnightblue" stroke="midnightblue" points="138.154,-53.776 129.551,-59.9594 140.133,-60.4906 138.154,-53.776"/>
</g>
<!-- Node7 -->
<g id="node7" class="node"><title>Node7</title>
<g id="a_node7"><a xlink:href="group__libtarget__pin.html#structAvr_1_1OutputConfiguration" target="_top" xlink:title="Output configuration parameter for pin (normal mode). ">
<polygon fill="none" stroke="black" points="12.5,-109 12.5,-139 142.5,-139 142.5,-109 12.5,-109"/>
<text text-anchor="start" x="20.5" y="-127" font-family="Helvetica,sans-Serif" font-size="10.00">Avr::OutputConfiguration</text>
<text text-anchor="middle" x="77.5" y="-116" font-family="Helvetica,sans-Serif" font-size="10.00">&lt; TDigitalIo, pinNumber &gt;</text>
</a>
</g>
</g>
<!-- Node7&#45;&gt;Node2 -->
<g id="edge5" class="edge"><title>Node7&#45;&gt;Node2</title>
<path fill="none" stroke="midnightblue" d="M152.763,-124C165.416,-124 178.464,-124 190.828,-124"/>
<polygon fill="midnightblue" stroke="midnightblue" points="152.72,-120.5 142.72,-124 152.72,-127.5 152.72,-120.5"/>
</g>
<!-- Node7&#45;&gt;Node5 -->
<g id="edge6" class="edge"><title>Node7&#45;&gt;Node5</title>
<path fill="none" stroke="midnightblue" d="M142.693,-106.179C161.75,-100.888 182.427,-95.1478 200.784,-90.0516"/>
<polygon fill="midnightblue" stroke="midnightblue" points="141.595,-102.851 132.896,-108.899 143.468,-109.596 141.595,-102.851"/>
</g>
<!-- Node8 -->
<g id="node8" class="node"><title>Node8</title>
<g id="a_node8"><a xlink:href="group__libtarget__pin.html#structAvr_1_1OutputConfigurationDisabled" target="_top" xlink:title="Output configuration parameter for pin (disabled). ">
<polygon fill="none" stroke="black" points="15,-206.5 15,-247.5 140,-247.5 140,-206.5 15,-206.5"/>
<text text-anchor="start" x="23" y="-235.5" font-family="Helvetica,sans-Serif" font-size="10.00">Avr::OutputConfiguration</text>
<text text-anchor="start" x="23" y="-224.5" font-family="Helvetica,sans-Serif" font-size="10.00">Disabled&lt; TDigitalIo,</text>
<text text-anchor="middle" x="77.5" y="-213.5" font-family="Helvetica,sans-Serif" font-size="10.00"> pinNumber &gt;</text>
</a>
</g>
</g>
<!-- Node8&#45;&gt;Node3 -->
<g id="edge7" class="edge"><title>Node8&#45;&gt;Node3</title>
<path fill="none" stroke="midnightblue" d="M150.156,-216.038C163.951,-213.928 178.307,-211.732 191.809,-209.667"/>
<polygon fill="midnightblue" stroke="midnightblue" points="149.587,-212.585 140.231,-217.557 150.645,-219.504 149.587,-212.585"/>
</g>
<!-- Node9 -->
<g id="node9" class="node"><title>Node9</title>
<g id="a_node9"><a xlink:href="group__libtarget__pin.html#structAvr_1_1OutputConfigurationInverted" target="_top" xlink:title="Output configuration parameter for pin (for inverted output pins / active low configuration). ">
<polygon fill="none" stroke="black" points="15,-0.5 15,-41.5 140,-41.5 140,-0.5 15,-0.5"/>
<text text-anchor="start" x="23" y="-29.5" font-family="Helvetica,sans-Serif" font-size="10.00">Avr::OutputConfiguration</text>
<text text-anchor="start" x="23" y="-18.5" font-family="Helvetica,sans-Serif" font-size="10.00">Inverted&lt; TDigitalIo,</text>
<text text-anchor="middle" x="77.5" y="-7.5" font-family="Helvetica,sans-Serif" font-size="10.00"> pinNumber &gt;</text>
</a>
</g>
</g>
<!-- Node9&#45;&gt;Node6 -->
<g id="edge8" class="edge"><title>Node9&#45;&gt;Node6</title>
<path fill="none" stroke="midnightblue" d="M150.372,-21.8144C163.794,-21.9665 177.74,-22.1245 190.909,-22.2738"/>
<polygon fill="midnightblue" stroke="midnightblue" points="150.27,-18.3131 140.231,-21.6995 150.191,-25.3127 150.27,-18.3131"/>
</g>
</g>
</svg>
