<?xml version="1.0" encoding="UTF-8" standalone="no"?>
<!DOCTYPE svg PUBLIC "-//W3C//DTD SVG 1.1//EN"
 "http://www.w3.org/Graphics/SVG/1.1/DTD/svg11.dtd">
<!-- Generated by graphviz version 2.38.0 (20140413.2041)
 -->
<!-- Title: Graphical Class Hierarchy Pages: 1 -->
<svg width="354pt" height="99pt"
 viewBox="0.00 0.00 354.00 98.50" xmlns="http://www.w3.org/2000/svg" xmlns:xlink="http://www.w3.org/1999/xlink">
<g id="graph0" class="graph" transform="scale(1 1) rotate(0) translate(4 94.5)">
<title>Graphical Class Hierarchy</title>
<!-- Node1 -->
<g id="node1" class="node"><title>Node1</title>
<g id="a_node1"><a xlink:href="group__libtarget__pin.html" target="_top" xlink:title="Avr::InputConfigurationDisabled\l\&lt; TCsDigitalIo, pinNumber \&gt;">
<polygon fill="none" stroke="black" points="0,-60 0,-90 155,-90 155,-60 0,-60"/>
<text text-anchor="start" x="8" y="-78" font-family="Helvetica,sans-Serif" font-size="10.00">Avr::InputConfigurationDisabled</text>
<text text-anchor="middle" x="77.5" y="-67" font-family="Helvetica,sans-Serif" font-size="10.00">&lt; TCsDigitalIo, pinNumber &gt;</text>
</a>
</g>
</g>
<!-- Node2 -->
<g id="node2" class="node"><title>Node2</title>
<g id="a_node2"><a xlink:href="group__libtarget__pin.html" target="_top" xlink:title="Avr::OutputPinInverted\l\&lt; TCsDigitalIo, csPinNumber \&gt;">
<polygon fill="none" stroke="black" points="191,-33 191,-63 346,-63 346,-33 191,-33"/>
<text text-anchor="start" x="199" y="-51" font-family="Helvetica,sans-Serif" font-size="10.00">Avr::OutputPinInverted</text>
<text text-anchor="middle" x="268.5" y="-40" font-family="Helvetica,sans-Serif" font-size="10.00">&lt; TCsDigitalIo, csPinNumber &gt;</text>
</a>
</g>
</g>
<!-- Node1&#45;&gt;Node2 -->
<g id="edge1" class="edge"><title>Node1&#45;&gt;Node2</title>
<path fill="none" stroke="midnightblue" d="M165.104,-62.628C173.674,-61.4038 182.33,-60.1671 190.79,-58.9586"/>
<polygon fill="midnightblue" stroke="midnightblue" points="164.506,-59.1779 155.101,-64.057 165.496,-66.1075 164.506,-59.1779"/>
</g>
<!-- Node3 -->
<g id="node3" class="node"><title>Node3</title>
<g id="a_node3"><a xlink:href="group__libtarget__pin.html" target="_top" xlink:title="Avr::OutputConfiguration\lInverted\&lt; TCsDigitalIo,\l pinNumber \&gt;">
<polygon fill="none" stroke="black" points="15,-0.5 15,-41.5 140,-41.5 140,-0.5 15,-0.5"/>
<text text-anchor="start" x="23" y="-29.5" font-family="Helvetica,sans-Serif" font-size="10.00">Avr::OutputConfiguration</text>
<text text-anchor="start" x="23" y="-18.5" font-family="Helvetica,sans-Serif" font-size="10.00">Inverted&lt; TCsDigitalIo,</text>
<text text-anchor="middle" x="77.5" y="-7.5" font-family="Helvetica,sans-Serif" font-size="10.00"> pinNumber &gt;</text>
</a>
</g>
</g>
<!-- Node3&#45;&gt;Node2 -->
<g id="edge2" class="edge"><title>Node3&#45;&gt;Node2</title>
<path fill="none" stroke="midnightblue" d="M150.133,-31.2333C163.41,-33.13 177.327,-35.1182 190.749,-37.0356"/>
<polygon fill="midnightblue" stroke="midnightblue" points="150.519,-27.7529 140.124,-29.8034 149.529,-34.6826 150.519,-27.7529"/>
</g>
</g>
</svg>
