<?xml version="1.0" encoding="UTF-8" standalone="no"?>
<!DOCTYPE svg PUBLIC "-//W3C//DTD SVG 1.1//EN"
 "http://www.w3.org/Graphics/SVG/1.1/DTD/svg11.dtd">
<!-- Generated by graphviz version 2.38.0 (20140413.2041)
 -->
<!-- Title: lib/utils.h Pages: 1 -->
<!--zoomable 252 -->
<svg id="main" version="1.1" xmlns="http://www.w3.org/2000/svg" xmlns:xlink="http://www.w3.org/1999/xlink" xml:space="preserve" onload="init(evt)">
<style type="text/css"><![CDATA[
.edge:hover path { stroke: red; }
.edge:hover polygon { stroke: red; fill: red; }
]]></style>
<script type="text/javascript"><![CDATA[
var edges = document.getElementsByTagName('g');
if (edges && edges.length) {
  for (var i=0;i<edges.length;i++) {
    if (edges[i].id.substr(0,4)=='edge') {
      edges[i].setAttribute('class','edge');
    }
  }
}
]]></script>
        <defs>
                <circle id="rim" cx="0" cy="0" r="7"/>
                <circle id="rim2" cx="0" cy="0" r="3.5"/>
                <g id="zoomPlus">
                        <use xlink:href="#rim" fill="#404040">
                                <set attributeName="fill" to="#808080" begin="zoomplus.mouseover" end="zoomplus.mouseout"/>
                        </use>
                        <path d="M-4,0h8M0,-4v8" fill="none" stroke="white" stroke-width="1.5" pointer-events="none"/>
                </g>
                <g id="zoomMin">
                        <use xlink:href="#rim" fill="#404040">
                                <set attributeName="fill" to="#808080" begin="zoomminus.mouseover" end="zoomminus.mouseout"/>
                        </use>
                        <path d="M-4,0h8" fill="none" stroke="white" stroke-width="1.5" pointer-events="none"/>
                </g>
                <g id="dirArrow">
                        <path fill="none" stroke="white" stroke-width="1.5" d="M0,-3.0v7 M-2.5,-0.5L0,-3.0L2.5,-0.5"/>
                </g>
               <g id="resetDef">
                       <use xlink:href="#rim2" fill="#404040">
                               <set attributeName="fill" to="#808080" begin="reset.mouseover" end="reset.mouseout"/>
                       </use>
               </g>
        </defs>

<script type="text/javascript">
var viewWidth = 1075;
var viewHeight = 252;
var sectionId = 'dynsection-0';
</script>
<script xlink:href="svgpan.js"/>
<svg id="graph" class="graph">
<g id="viewport">
<title>lib/utils.h</title>
<!-- Node0 -->
<g id="node1" class="node"><title>Node0</title>
<polygon fill="#bfbfbf" stroke="black" points="577.02,-224.5 577.02,-243.5 633.02,-243.5 633.02,-224.5 577.02,-224.5"/>
<text text-anchor="middle" x="605.02" y="-231.5" font-family="Helvetica,sans-Serif" font-size="10.00">lib/utils.h</text>
</g>
<!-- Node1 -->
<g id="node2" class="node"><title>Node1</title>
<g id="a_node2"><a xlink:href="bitdecoder_8h.html" target="_top" xlink:title="Sensors::BitDecoder transforms continuous bit streams (for example from RF demodulation) into bytes...">
<polygon fill="none" stroke="black" points="170.52,-168.5 170.52,-187.5 253.52,-187.5 253.52,-168.5 170.52,-168.5"/>
<text text-anchor="middle" x="212.02" y="-175.5" font-family="Helvetica,sans-Serif" font-size="10.00">lib/bitdecoder.h</text>
</a>
</g>
</g>
<!-- Node0&#45;&gt;Node1 -->
<g id="edge1" class="edge"><title>Node0&#45;&gt;Node1</title>
<path fill="none" stroke="midnightblue" d="M566.476,-227.704C492.339,-217.517 330.45,-195.273 253.822,-184.744"/>
<polygon fill="midnightblue" stroke="midnightblue" points="566.373,-231.223 576.757,-229.116 567.326,-224.288 566.373,-231.223"/>
</g>
<!-- Node2 -->
<g id="node3" class="node"><title>Node2</title>
<g id="a_node3"><a xlink:href="hidekisensor_8h.html" target="_top" xlink:title="Sensors::HidekiSensor and Sensors::HidekiDevice decode data from wireless Hideki RF 433 MHz sensors...">
<polygon fill="none" stroke="black" points="187.02,-56.5 187.02,-75.5 279.02,-75.5 279.02,-56.5 187.02,-56.5"/>
<text text-anchor="middle" x="233.02" y="-63.5" font-family="Helvetica,sans-Serif" font-size="10.00">lib/hidekisensor.h</text>
</a>
</g>
</g>
<!-- Node0&#45;&gt;Node2 -->
<g id="edge13" class="edge"><title>Node0&#45;&gt;Node2</title>
<path fill="none" stroke="midnightblue" d="M566.742,-233.439C444.042,-233.879 64.9885,-227.398 4.02019,-132 -0.76658,-124.51 -1.62681,-118.865 4.02019,-112 26.7037,-84.4252 126.699,-73.4896 186.8,-69.3523"/>
<polygon fill="midnightblue" stroke="midnightblue" points="566.822,-236.939 576.803,-233.385 566.784,-229.939 566.822,-236.939"/>
</g>
<!-- Node7 -->
<g id="node8" class="node"><title>Node7</title>
<g id="a_node8"><a xlink:href="test__bitdecoder_8cpp.html" target="_top" xlink:title="Unit tests for Bit Decoder. ">
<polygon fill="none" stroke="black" points="13.5202,-112.5 13.5202,-131.5 140.52,-131.5 140.52,-112.5 13.5202,-112.5"/>
<text text-anchor="middle" x="77.0202" y="-119.5" font-family="Helvetica,sans-Serif" font-size="10.00">tests/test_bitdecoder.cpp</text>
</a>
</g>
</g>
<!-- Node0&#45;&gt;Node7 -->
<g id="edge31" class="edge"><title>Node0&#45;&gt;Node7</title>
<path fill="none" stroke="midnightblue" d="M566.772,-231.817C473.092,-228.492 234.465,-217.316 161.02,-188 128.824,-175.148 98.6142,-146.118 84.8369,-131.602"/>
<polygon fill="midnightblue" stroke="midnightblue" points="566.825,-235.321 576.94,-232.167 567.066,-228.325 566.825,-235.321"/>
</g>
<!-- Node8 -->
<g id="node9" class="node"><title>Node8</title>
<g id="a_node9"><a xlink:href="demodulator_8h.html" target="_top" xlink:title="Sensors::Demodulator transforms continuous streams with pulse widths (for example from RF receivers) ...">
<polygon fill="none" stroke="black" points="320.52,-168.5 320.52,-187.5 411.52,-187.5 411.52,-168.5 320.52,-168.5"/>
<text text-anchor="middle" x="366.02" y="-175.5" font-family="Helvetica,sans-Serif" font-size="10.00">lib/demodulator.h</text>
</a>
</g>
</g>
<!-- Node0&#45;&gt;Node8 -->
<g id="edge9" class="edge"><title>Node0&#45;&gt;Node8</title>
<path fill="none" stroke="midnightblue" d="M566.756,-224.354C521.982,-214.238 448.316,-197.594 403.767,-187.529"/>
<polygon fill="midnightblue" stroke="midnightblue" points="566.14,-227.803 576.665,-226.593 567.682,-220.976 566.14,-227.803"/>
</g>
<!-- Node9 -->
<g id="node10" class="node"><title>Node9</title>
<g id="a_node10"><a xlink:href="test__demodulator_8cpp.html" target="_top" xlink:title="Unit tests for Demodulator. ">
<polygon fill="none" stroke="black" points="325.52,-112.5 325.52,-131.5 460.52,-131.5 460.52,-112.5 325.52,-112.5"/>
<text text-anchor="middle" x="393.02" y="-119.5" font-family="Helvetica,sans-Serif" font-size="10.00">tests/test_demodulator.cpp</text>
</a>
</g>
</g>
<!-- Node0&#45;&gt;Node9 -->
<g id="edge32" class="edge"><title>Node0&#45;&gt;Node9</title>
<path fill="none" stroke="midnightblue" d="M579.455,-219.735C535.415,-196.884 446.427,-150.711 409.578,-131.591"/>
<polygon fill="midnightblue" stroke="midnightblue" points="577.897,-222.87 588.385,-224.368 581.121,-216.656 577.897,-222.87"/>
</g>
<!-- Node10 -->
<g id="node11" class="node"><title>Node10</title>
<g id="a_node11"><a xlink:href="bmp180_8h.html" target="_top" xlink:title="Avr::Bmp180 decodes data from Bosch BMP180 Digital pressure sensors. ">
<polygon fill="none" stroke="black" points="967.02,-56.5 967.02,-75.5 1067.02,-75.5 1067.02,-56.5 967.02,-56.5"/>
<text text-anchor="middle" x="1017.02" y="-63.5" font-family="Helvetica,sans-Serif" font-size="10.00">target/lib/bmp180.h</text>
</a>
</g>
</g>
<!-- Node0&#45;&gt;Node10 -->
<g id="edge14" class="edge"><title>Node0&#45;&gt;Node10</title>
<path fill="none" stroke="midnightblue" d="M643.191,-225.44C678.529,-217.876 732.216,-204.938 777.02,-188 866.28,-154.256 966.084,-97.2101 1002.63,-75.6236"/>
<polygon fill="midnightblue" stroke="midnightblue" points="642.355,-222.039 633.289,-227.522 643.795,-228.89 642.355,-222.039"/>
</g>
<!-- Node11 -->
<g id="node12" class="node"><title>Node11</title>
<g id="a_node12"><a xlink:href="dht22_8h.html" target="_top" xlink:title="Avr::Dht22 decodes data from DHT22 / AM2302 Temperature and Humidity sensors. ">
<polygon fill="none" stroke="black" points="478.52,-112.5 478.52,-131.5 567.52,-131.5 567.52,-112.5 478.52,-112.5"/>
<text text-anchor="middle" x="523.02" y="-119.5" font-family="Helvetica,sans-Serif" font-size="10.00">target/lib/dht22.h</text>
</a>
</g>
</g>
<!-- Node0&#45;&gt;Node11 -->
<g id="edge16" class="edge"><title>Node0&#45;&gt;Node11</title>
<path fill="none" stroke="midnightblue" d="M585.949,-217.767C576.5,-209.599 565.359,-198.974 557.02,-188 542.997,-169.545 531.728,-144.478 526.385,-131.528"/>
<polygon fill="midnightblue" stroke="midnightblue" points="583.79,-220.525 593.705,-224.26 588.284,-215.157 583.79,-220.525"/>
</g>
<!-- Node12 -->
<g id="node13" class="node"><title>Node12</title>
<g id="a_node13"><a xlink:href="pin_8h.html" target="_top" xlink:title="Wrapper for accessing digital I/O ports. ">
<polygon fill="none" stroke="black" points="566.02,-168.5 566.02,-187.5 644.02,-187.5 644.02,-168.5 566.02,-168.5"/>
<text text-anchor="middle" x="605.02" y="-175.5" font-family="Helvetica,sans-Serif" font-size="10.00">target/lib/pin.h</text>
</a>
</g>
</g>
<!-- Node0&#45;&gt;Node12 -->
<g id="edge18" class="edge"><title>Node0&#45;&gt;Node12</title>
<path fill="none" stroke="midnightblue" d="M605.02,-213.805C605.02,-204.91 605.02,-194.78 605.02,-187.751"/>
<polygon fill="midnightblue" stroke="midnightblue" points="601.52,-214.083 605.02,-224.083 608.52,-214.083 601.52,-214.083"/>
</g>
<!-- Node13 -->
<g id="node14" class="node"><title>Node13</title>
<g id="a_node14"><a xlink:href="spi_8h.html" target="_top" xlink:title="Wrapper for accessing built&#45;in SPI communication interface. ">
<polygon fill="none" stroke="black" points="662.02,-112.5 662.02,-131.5 740.02,-131.5 740.02,-112.5 662.02,-112.5"/>
<text text-anchor="middle" x="701.02" y="-119.5" font-family="Helvetica,sans-Serif" font-size="10.00">target/lib/spi.h</text>
</a>
</g>
</g>
<!-- Node0&#45;&gt;Node13 -->
<g id="edge27" class="edge"><title>Node0&#45;&gt;Node13</title>
<path fill="none" stroke="midnightblue" d="M623.048,-217.521C632.386,-209.158 643.744,-198.431 653.02,-188 669.8,-169.131 686.714,-144.662 695.277,-131.796"/>
<polygon fill="midnightblue" stroke="midnightblue" points="620.659,-214.96 615.464,-224.195 625.284,-220.215 620.659,-214.96"/>
</g>
<!-- Node14 -->
<g id="node15" class="node"><title>Node14</title>
<g id="a_node15"><a xlink:href="wiznet_8h_source.html" target="_top" xlink:title="target/lib/wiznet.h">
<polygon fill="none" stroke="black" points="624.02,-56.5 624.02,-75.5 718.02,-75.5 718.02,-56.5 624.02,-56.5"/>
<text text-anchor="middle" x="671.02" y="-63.5" font-family="Helvetica,sans-Serif" font-size="10.00">target/lib/wiznet.h</text>
</a>
</g>
</g>
<!-- Node0&#45;&gt;Node14 -->
<g id="edge30" class="edge"><title>Node0&#45;&gt;Node14</title>
<path fill="none" stroke="midnightblue" d="M638.703,-220.609C673.743,-205.654 726.566,-176.789 749.02,-132 762.213,-105.684 725,-86.0415 697.531,-75.5642"/>
<polygon fill="midnightblue" stroke="midnightblue" points="637.25,-217.422 629.331,-224.46 639.911,-223.896 637.25,-217.422"/>
</g>
<!-- Node15 -->
<g id="node16" class="node"><title>Node15</title>
<g id="a_node16"><a xlink:href="mlx90614_8h.html" target="_top" xlink:title="Avr::Mlx90614 decodes data from Melexis MLX90614 Infrared thermometer sensors. ">
<polygon fill="none" stroke="black" points="736.52,-56.5 736.52,-75.5 843.52,-75.5 843.52,-56.5 736.52,-56.5"/>
<text text-anchor="middle" x="790.02" y="-63.5" font-family="Helvetica,sans-Serif" font-size="10.00">target/lib/mlx90614.h</text>
</a>
</g>
</g>
<!-- Node0&#45;&gt;Node15 -->
<g id="edge25" class="edge"><title>Node0&#45;&gt;Node15</title>
<path fill="none" stroke="midnightblue" d="M643.132,-224.72C668.011,-217.917 700.176,-206.354 724.02,-188 763.081,-157.932 782.015,-97.9045 787.921,-75.6033"/>
<polygon fill="midnightblue" stroke="midnightblue" points="642.108,-221.369 633.305,-227.265 643.863,-228.146 642.108,-221.369"/>
</g>
<!-- Node16 -->
<g id="node17" class="node"><title>Node16</title>
<g id="a_node17"><a xlink:href="timer_8h.html" target="_top" xlink:title="Wrapper for accessing built&#45;in timers facilities. ">
<polygon fill="none" stroke="black" points="861.52,-56.5 861.52,-75.5 948.52,-75.5 948.52,-56.5 861.52,-56.5"/>
<text text-anchor="middle" x="905.02" y="-63.5" font-family="Helvetica,sans-Serif" font-size="10.00">target/lib/timer.h</text>
</a>
</g>
</g>
<!-- Node0&#45;&gt;Node16 -->
<g id="edge28" class="edge"><title>Node0&#45;&gt;Node16</title>
<path fill="none" stroke="midnightblue" d="M642.982,-224.781C672.419,-217.52 713.68,-205.367 747.02,-188 809.837,-155.279 873.366,-97.3715 896.186,-75.5975"/>
<polygon fill="midnightblue" stroke="midnightblue" points="642.006,-221.415 633.095,-227.146 643.635,-228.223 642.006,-221.415"/>
</g>
<!-- Node17 -->
<g id="node18" class="node"><title>Node17</title>
<g id="a_node18"><a xlink:href="test__utils_8cpp.html" target="_top" xlink:title="Unit tests for Utilities. ">
<polygon fill="none" stroke="black" points="910.02,-168.5 910.02,-187.5 1010.02,-187.5 1010.02,-168.5 910.02,-168.5"/>
<text text-anchor="middle" x="960.02" y="-175.5" font-family="Helvetica,sans-Serif" font-size="10.00">tests/test_utils.cpp</text>
</a>
</g>
</g>
<!-- Node0&#45;&gt;Node17 -->
<g id="edge33" class="edge"><title>Node0&#45;&gt;Node17</title>
<path fill="none" stroke="midnightblue" d="M643.31,-227.176C707.795,-217.367 838.032,-197.556 909.777,-186.643"/>
<polygon fill="midnightblue" stroke="midnightblue" points="642.533,-223.753 633.173,-228.718 643.586,-230.674 642.533,-223.753"/>
</g>
<!-- Node1&#45;&gt;Node2 -->
<g id="edge2" class="edge"><title>Node1&#45;&gt;Node2</title>
<path fill="none" stroke="midnightblue" d="M198.564,-159.923C189.887,-146.731 181.362,-128.073 188.02,-112 194.447,-96.4846 209.106,-83.5295 219.956,-75.5641"/>
<polygon fill="midnightblue" stroke="midnightblue" points="195.742,-161.994 204.412,-168.084 201.433,-157.916 195.742,-161.994"/>
</g>
<!-- Node6 -->
<g id="node7" class="node"><title>Node6</title>
<g id="a_node7"><a xlink:href="rfdevice_8h.html" target="_top" xlink:title="Sensors::RfDevice is the base template for RF receivers connecting Demodulator, Bit Decoder and Senso...">
<polygon fill="none" stroke="black" points="197.02,-112.5 197.02,-131.5 269.02,-131.5 269.02,-112.5 197.02,-112.5"/>
<text text-anchor="middle" x="233.02" y="-119.5" font-family="Helvetica,sans-Serif" font-size="10.00">lib/rfdevice.h</text>
</a>
</g>
</g>
<!-- Node1&#45;&gt;Node6 -->
<g id="edge6" class="edge"><title>Node1&#45;&gt;Node6</title>
<path fill="none" stroke="midnightblue" d="M219.141,-158.69C222.68,-149.589 226.792,-139.014 229.617,-131.751"/>
<polygon fill="midnightblue" stroke="midnightblue" points="215.85,-157.494 215.488,-168.083 222.374,-160.032 215.85,-157.494"/>
</g>
<!-- Node1&#45;&gt;Node7 -->
<g id="edge8" class="edge"><title>Node1&#45;&gt;Node7</title>
<path fill="none" stroke="midnightblue" d="M181.114,-164.638C155.78,-154.504 120.589,-140.427 98.3113,-131.516"/>
<polygon fill="midnightblue" stroke="midnightblue" points="180.044,-167.979 190.629,-168.444 182.644,-161.48 180.044,-167.979"/>
</g>
<!-- Node3 -->
<g id="node4" class="node"><title>Node3</title>
<g id="a_node4"><a xlink:href="main_8cpp.html" target="_top" xlink:title="The main weather station application utilizing Sensors library and AVR C++ utilities library...">
<polygon fill="none" stroke="black" points="629.02,-0.5 629.02,-19.5 713.02,-19.5 713.02,-0.5 629.02,-0.5"/>
<text text-anchor="middle" x="671.02" y="-7.5" font-family="Helvetica,sans-Serif" font-size="10.00">target/main.cpp</text>
</a>
</g>
</g>
<!-- Node2&#45;&gt;Node3 -->
<g id="edge3" class="edge"><title>Node2&#45;&gt;Node3</title>
<path fill="none" stroke="midnightblue" d="M289.237,-58.0692C378.214,-47.0994 549.51,-25.9807 628.819,-16.2028"/>
<polygon fill="midnightblue" stroke="midnightblue" points="288.563,-54.6257 279.066,-59.3231 289.419,-61.5731 288.563,-54.6257"/>
</g>
<!-- Node4 -->
<g id="node5" class="node"><title>Node4</title>
<g id="a_node5"><a xlink:href="test__hidekidevice_8cpp.html" target="_top" xlink:title="Unit tests for Sensors::HidekiDevice. ">
<polygon fill="none" stroke="black" points="243.02,-0.5 243.02,-19.5 379.02,-19.5 379.02,-0.5 243.02,-0.5"/>
<text text-anchor="middle" x="311.02" y="-7.5" font-family="Helvetica,sans-Serif" font-size="10.00">tests/test_hidekidevice.cpp</text>
</a>
</g>
</g>
<!-- Node2&#45;&gt;Node4 -->
<g id="edge4" class="edge"><title>Node2&#45;&gt;Node4</title>
<path fill="none" stroke="midnightblue" d="M253.788,-50.6221C268.037,-40.7574 286.476,-27.9919 298.519,-19.6545"/>
<polygon fill="midnightblue" stroke="midnightblue" points="251.782,-47.7541 245.552,-56.324 255.766,-53.5095 251.782,-47.7541"/>
</g>
<!-- Node5 -->
<g id="node6" class="node"><title>Node5</title>
<g id="a_node6"><a xlink:href="test__hidekisensor_8cpp.html" target="_top" xlink:title="Unit tests for Sensors::HidekiSensor. ">
<polygon fill="none" stroke="black" points="87.5202,-0.5 87.5202,-19.5 224.52,-19.5 224.52,-0.5 87.5202,-0.5"/>
<text text-anchor="middle" x="156.02" y="-7.5" font-family="Helvetica,sans-Serif" font-size="10.00">tests/test_hidekisensor.cpp</text>
</a>
</g>
</g>
<!-- Node2&#45;&gt;Node5 -->
<g id="edge5" class="edge"><title>Node2&#45;&gt;Node5</title>
<path fill="none" stroke="midnightblue" d="M212.119,-50.3422C198.109,-40.5169 180.137,-27.9132 168.361,-19.6545"/>
<polygon fill="midnightblue" stroke="midnightblue" points="210.452,-53.4477 220.649,-56.324 214.471,-47.7166 210.452,-53.4477"/>
</g>
<!-- Node6&#45;&gt;Node2 -->
<g id="edge7" class="edge"><title>Node6&#45;&gt;Node2</title>
<path fill="none" stroke="midnightblue" d="M233.02,-101.805C233.02,-92.9102 233.02,-82.7798 233.02,-75.7511"/>
<polygon fill="midnightblue" stroke="midnightblue" points="229.52,-102.083 233.02,-112.083 236.52,-102.083 229.52,-102.083"/>
</g>
<!-- Node8&#45;&gt;Node2 -->
<g id="edge10" class="edge"><title>Node8&#45;&gt;Node2</title>
<path fill="none" stroke="midnightblue" d="M347.661,-161.816C319.334,-138.387 265.895,-94.1898 243.408,-75.5914"/>
<polygon fill="midnightblue" stroke="midnightblue" points="345.647,-164.692 355.584,-168.368 350.109,-159.298 345.647,-164.692"/>
</g>
<!-- Node8&#45;&gt;Node6 -->
<g id="edge11" class="edge"><title>Node8&#45;&gt;Node6</title>
<path fill="none" stroke="midnightblue" d="M335.572,-164.638C310.613,-154.504 275.943,-140.427 253.996,-131.516"/>
<polygon fill="midnightblue" stroke="midnightblue" points="334.364,-167.924 344.946,-168.444 336.997,-161.439 334.364,-167.924"/>
</g>
<!-- Node8&#45;&gt;Node9 -->
<g id="edge12" class="edge"><title>Node8&#45;&gt;Node9</title>
<path fill="none" stroke="midnightblue" d="M375.029,-158.983C379.612,-149.817 384.974,-139.092 388.645,-131.751"/>
<polygon fill="midnightblue" stroke="midnightblue" points="371.82,-157.573 370.479,-168.083 378.081,-160.704 371.82,-157.573"/>
</g>
<!-- Node10&#45;&gt;Node3 -->
<g id="edge15" class="edge"><title>Node10&#45;&gt;Node3</title>
<path fill="none" stroke="midnightblue" d="M956.752,-55.594C887.067,-44.7182 774.157,-27.0965 713.229,-17.5875"/>
<polygon fill="midnightblue" stroke="midnightblue" points="956.289,-59.064 966.709,-57.1479 957.368,-52.1477 956.289,-59.064"/>
</g>
<!-- Node11&#45;&gt;Node3 -->
<g id="edge17" class="edge"><title>Node11&#45;&gt;Node3</title>
<path fill="none" stroke="midnightblue" d="M535.429,-104.185C546.49,-90.0365 563.721,-69.9385 582.02,-56 602.818,-40.1582 630.046,-27.3486 648.882,-19.5057"/>
<polygon fill="midnightblue" stroke="midnightblue" points="532.373,-102.422 529.102,-112.5 537.943,-106.661 532.373,-102.422"/>
</g>
<!-- Node12&#45;&gt;Node3 -->
<g id="edge24" class="edge"><title>Node12&#45;&gt;Node3</title>
<path fill="none" stroke="midnightblue" d="M602.206,-158.214C599.404,-133.285 597.695,-88.6246 615.02,-56 623.678,-39.6972 641.042,-27.2042 654.152,-19.5648"/>
<polygon fill="midnightblue" stroke="midnightblue" points="598.777,-158.988 603.548,-168.448 605.718,-158.078 598.777,-158.988"/>
</g>
<!-- Node12&#45;&gt;Node11 -->
<g id="edge19" class="edge"><title>Node12&#45;&gt;Node11</title>
<path fill="none" stroke="midnightblue" d="M583.187,-162.622C568.207,-152.757 548.823,-139.992 536.162,-131.655"/>
<polygon fill="midnightblue" stroke="midnightblue" points="581.569,-165.747 591.845,-168.324 585.419,-159.901 581.569,-165.747"/>
</g>
<!-- Node12&#45;&gt;Node13 -->
<g id="edge20" class="edge"><title>Node12&#45;&gt;Node13</title>
<path fill="none" stroke="midnightblue" d="M629.594,-163.177C647.259,-153.241 670.533,-140.149 685.634,-131.655"/>
<polygon fill="midnightblue" stroke="midnightblue" points="627.444,-160.371 620.444,-168.324 630.876,-166.472 627.444,-160.371"/>
</g>
<!-- Node12&#45;&gt;Node14 -->
<g id="edge23" class="edge"><title>Node12&#45;&gt;Node14</title>
<path fill="none" stroke="midnightblue" d="M615.436,-159.64C629.774,-135.744 655.043,-93.6286 665.865,-75.5914"/>
<polygon fill="midnightblue" stroke="midnightblue" points="612.343,-157.993 610.199,-168.368 618.345,-161.594 612.343,-157.993"/>
</g>
<!-- Node13&#45;&gt;Node14 -->
<g id="edge21" class="edge"><title>Node13&#45;&gt;Node14</title>
<path fill="none" stroke="midnightblue" d="M691.173,-103.275C686.045,-94.0454 680.004,-83.1703 675.882,-75.7511"/>
<polygon fill="midnightblue" stroke="midnightblue" points="688.15,-105.041 696.066,-112.083 694.269,-101.642 688.15,-105.041"/>
</g>
<!-- Node14&#45;&gt;Node3 -->
<g id="edge22" class="edge"><title>Node14&#45;&gt;Node3</title>
<path fill="none" stroke="midnightblue" d="M671.02,-45.8045C671.02,-36.9102 671.02,-26.7798 671.02,-19.7511"/>
<polygon fill="midnightblue" stroke="midnightblue" points="667.52,-46.083 671.02,-56.083 674.52,-46.083 667.52,-46.083"/>
</g>
<!-- Node15&#45;&gt;Node3 -->
<g id="edge26" class="edge"><title>Node15&#45;&gt;Node3</title>
<path fill="none" stroke="midnightblue" d="M761.884,-52.2321C739.624,-42.1312 709.164,-28.3091 689.788,-19.5164"/>
<polygon fill="midnightblue" stroke="midnightblue" points="760.612,-55.4984 771.164,-56.4435 763.504,-49.124 760.612,-55.4984"/>
</g>
<!-- Node16&#45;&gt;Node3 -->
<g id="edge29" class="edge"><title>Node16&#45;&gt;Node3</title>
<path fill="none" stroke="midnightblue" d="M858.016,-54.1529C813.803,-43.95 748.504,-28.8809 707.925,-19.5164"/>
<polygon fill="midnightblue" stroke="midnightblue" points="857.411,-57.6052 867.942,-56.4435 858.985,-50.7845 857.411,-57.6052"/>
</g>
</g>
</svg>
        <g id="navigator" transform="translate(0 0)" fill="#404254">
                <rect fill="#f2f5e9" fill-opacity="0.5" stroke="#606060" stroke-width=".5" x="0" y="0" width="60" height="60"/>
                <use id="zoomplus" xlink:href="#zoomPlus" x="17" y="9" onmousedown="handleZoom(evt,'in')"/>
                <use id="zoomminus" xlink:href="#zoomMin" x="42" y="9" onmousedown="handleZoom(evt,'out')"/>
                <use id="reset" xlink:href="#resetDef" x="30" y="36" onmousedown="handleReset()"/>
                <g id="arrowUp" xlink:href="#dirArrow" transform="translate(30 24)" onmousedown="handlePan(0,-1)">
                  <use xlink:href="#rim" fill="#404040">
                        <set attributeName="fill" to="#808080" begin="arrowUp.mouseover" end="arrowUp.mouseout"/>
                  </use>
                  <path fill="none" stroke="white" stroke-width="1.5" d="M0,-3.0v7 M-2.5,-0.5L0,-3.0L2.5,-0.5"/>
                </g>
                <g id="arrowRight" xlink:href="#dirArrow" transform="rotate(90) translate(36 -43)" onmousedown="handlePan(1,0)">
                  <use xlink:href="#rim" fill="#404040">
                        <set attributeName="fill" to="#808080" begin="arrowRight.mouseover" end="arrowRight.mouseout"/>
                  </use>
                  <path fill="none" stroke="white" stroke-width="1.5" d="M0,-3.0v7 M-2.5,-0.5L0,-3.0L2.5,-0.5"/>
                </g>
                <g id="arrowDown" xlink:href="#dirArrow" transform="rotate(180) translate(-30 -48)" onmousedown="handlePan(0,1)">
                  <use xlink:href="#rim" fill="#404040">
                        <set attributeName="fill" to="#808080" begin="arrowDown.mouseover" end="arrowDown.mouseout"/>
                  </use>
                  <path fill="none" stroke="white" stroke-width="1.5" d="M0,-3.0v7 M-2.5,-0.5L0,-3.0L2.5,-0.5"/>
                </g>
                <g id="arrowLeft" xlink:href="#dirArrow" transform="rotate(270) translate(-36 17)" onmousedown="handlePan(-1,0)">
                  <use xlink:href="#rim" fill="#404040">
                        <set attributeName="fill" to="#808080" begin="arrowLeft.mouseover" end="arrowLeft.mouseout"/>
                  </use>
                  <path fill="none" stroke="white" stroke-width="1.5" d="M0,-3.0v7 M-2.5,-0.5L0,-3.0L2.5,-0.5"/>
                </g>
        </g>
        <svg viewBox="0 0 15 15" width="100%" height="30px" preserveAspectRatio="xMaxYMin meet">
         <g id="arrow_out" transform="scale(0.3 0.3)">
          <a xlink:href="lib_2utils_8h__dep__incl_org.svg" target="_base">
           <rect id="button" ry="5" rx="5" y="6" x="6" height="38" width="38"
                fill="#f2f5e9" fill-opacity="0.5" stroke="#606060" stroke-width="1.0"/>
           <path id="arrow"
             d="M 11.500037,31.436501 C 11.940474,20.09759 22.043105,11.32322 32.158766,21.979434 L 37.068811,17.246167 C 37.068811,17.246167 37.088388,32 37.088388,32 L 22.160133,31.978069 C 22.160133,31.978069 26.997745,27.140456 26.997745,27.140456 C 18.528582,18.264221 13.291696,25.230495 11.500037,31.436501 z"
             style="fill:#404040;"/>
          </a>
         </g>
        </svg>
</svg>
