<?xml version="1.0" encoding="UTF-8" standalone="no"?>
<!DOCTYPE svg PUBLIC "-//W3C//DTD SVG 1.1//EN"
 "http://www.w3.org/Graphics/SVG/1.1/DTD/svg11.dtd">
<!-- Generated by graphviz version 2.38.0 (20140413.2041)
 -->
<!-- Title: target/lib/pin.h Pages: 1 -->
<svg width="248pt" height="196pt"
 viewBox="0.00 0.00 247.50 196.00" xmlns="http://www.w3.org/2000/svg" xmlns:xlink="http://www.w3.org/1999/xlink">
<g id="graph0" class="graph" transform="scale(1 1) rotate(0) translate(4 192)">
<title>target/lib/pin.h</title>
<!-- Node0 -->
<g id="node1" class="node"><title>Node0</title>
<polygon fill="#bfbfbf" stroke="black" points="111.5,-168.5 111.5,-187.5 189.5,-187.5 189.5,-168.5 111.5,-168.5"/>
<text text-anchor="middle" x="150.5" y="-175.5" font-family="Helvetica,sans-Serif" font-size="10.00">target/lib/pin.h</text>
</g>
<!-- Node1 -->
<g id="node2" class="node"><title>Node1</title>
<g id="a_node2"><a xlink:href="dht22_8h.html" target="_top" xlink:title="Avr::Dht22 decodes data from DHT22 / AM2302 Temperature and Humidity sensors. ">
<polygon fill="none" stroke="black" points="0,-56.5 0,-75.5 89,-75.5 89,-56.5 0,-56.5"/>
<text text-anchor="middle" x="44.5" y="-63.5" font-family="Helvetica,sans-Serif" font-size="10.00">target/lib/dht22.h</text>
</a>
</g>
</g>
<!-- Node0&#45;&gt;Node1 -->
<g id="edge1" class="edge"><title>Node0&#45;&gt;Node1</title>
<path fill="none" stroke="midnightblue" d="M133.638,-161.399C124.559,-152.864 113.253,-142.016 103.5,-132 84.3622,-112.346 62.9682,-88.1954 51.9523,-75.5882"/>
<polygon fill="midnightblue" stroke="midnightblue" points="131.251,-163.958 140.949,-168.225 136.028,-158.842 131.251,-163.958"/>
</g>
<!-- Node2 -->
<g id="node3" class="node"><title>Node2</title>
<g id="a_node3"><a xlink:href="main_8cpp.html" target="_top" xlink:title="The main weather station application utilizing Sensors library and AVR C++ utilities library...">
<polygon fill="none" stroke="black" points="75.5,-0.5 75.5,-19.5 159.5,-19.5 159.5,-0.5 75.5,-0.5"/>
<text text-anchor="middle" x="117.5" y="-7.5" font-family="Helvetica,sans-Serif" font-size="10.00">target/main.cpp</text>
</a>
</g>
</g>
<!-- Node0&#45;&gt;Node2 -->
<g id="edge7" class="edge"><title>Node0&#45;&gt;Node2</title>
<path fill="none" stroke="midnightblue" d="M144.212,-158.914C141.55,-150.765 138.589,-140.976 136.5,-132 126.811,-90.3714 120.624,-39.5198 118.412,-19.591"/>
<polygon fill="midnightblue" stroke="midnightblue" points="140.925,-160.12 147.439,-168.476 147.557,-157.881 140.925,-160.12"/>
</g>
<!-- Node3 -->
<g id="node4" class="node"><title>Node3</title>
<g id="a_node4"><a xlink:href="spi_8h.html" target="_top" xlink:title="Wrapper for accessing built&#45;in SPI communication interface. ">
<polygon fill="none" stroke="black" points="145.5,-112.5 145.5,-131.5 223.5,-131.5 223.5,-112.5 145.5,-112.5"/>
<text text-anchor="middle" x="184.5" y="-119.5" font-family="Helvetica,sans-Serif" font-size="10.00">target/lib/spi.h</text>
</a>
</g>
</g>
<!-- Node0&#45;&gt;Node3 -->
<g id="edge3" class="edge"><title>Node0&#45;&gt;Node3</title>
<path fill="none" stroke="midnightblue" d="M161.477,-159.566C167.327,-150.275 174.27,-139.248 178.99,-131.751"/>
<polygon fill="midnightblue" stroke="midnightblue" points="158.481,-157.756 156.114,-168.083 164.404,-161.486 158.481,-157.756"/>
</g>
<!-- Node4 -->
<g id="node5" class="node"><title>Node4</title>
<g id="a_node5"><a xlink:href="wiznet_8h_source.html" target="_top" xlink:title="target/lib/wiznet.h">
<polygon fill="none" stroke="black" points="145.5,-56.5 145.5,-75.5 239.5,-75.5 239.5,-56.5 145.5,-56.5"/>
<text text-anchor="middle" x="192.5" y="-63.5" font-family="Helvetica,sans-Serif" font-size="10.00">target/lib/wiznet.h</text>
</a>
</g>
</g>
<!-- Node0&#45;&gt;Node4 -->
<g id="edge6" class="edge"><title>Node0&#45;&gt;Node4</title>
<path fill="none" stroke="midnightblue" d="M191.865,-164.496C207.433,-157.552 223.527,-147.16 232.5,-132 244.581,-111.589 220.211,-87.9428 204.458,-75.5644"/>
<polygon fill="midnightblue" stroke="midnightblue" points="190.252,-161.373 182.309,-168.385 192.89,-167.857 190.252,-161.373"/>
</g>
<!-- Node1&#45;&gt;Node2 -->
<g id="edge2" class="edge"><title>Node1&#45;&gt;Node2</title>
<path fill="none" stroke="midnightblue" d="M64.6416,-50.1008C77.7793,-40.3824 94.4821,-28.0269 105.558,-19.8339"/>
<polygon fill="midnightblue" stroke="midnightblue" points="62.1867,-47.5631 56.2287,-56.324 66.3497,-53.1907 62.1867,-47.5631"/>
</g>
<!-- Node3&#45;&gt;Node4 -->
<g id="edge4" class="edge"><title>Node3&#45;&gt;Node4</title>
<path fill="none" stroke="midnightblue" d="M187.3,-102.101C188.628,-93.1357 190.151,-82.8579 191.204,-75.7511"/>
<polygon fill="midnightblue" stroke="midnightblue" points="183.824,-101.678 185.821,-112.083 190.749,-102.704 183.824,-101.678"/>
</g>
<!-- Node4&#45;&gt;Node2 -->
<g id="edge5" class="edge"><title>Node4&#45;&gt;Node2</title>
<path fill="none" stroke="midnightblue" d="M172.195,-50.3804C158.639,-40.6204 141.258,-28.1057 129.769,-19.8339"/>
<polygon fill="midnightblue" stroke="midnightblue" points="170.29,-53.3213 180.45,-56.324 174.38,-47.6405 170.29,-53.3213"/>
</g>
</g>
</svg>
