<?xml version="1.0" encoding="UTF-8" standalone="no"?>
<!DOCTYPE svg PUBLIC "-//W3C//DTD SVG 1.1//EN"
 "http://www.w3.org/Graphics/SVG/1.1/DTD/svg11.dtd">
<!-- Generated by graphviz version 2.38.0 (20140413.2041)
 -->
<!-- Title: lib/tgs2600.h Pages: 1 -->
<svg width="226pt" height="84pt"
 viewBox="0.00 0.00 226.00 84.00" xmlns="http://www.w3.org/2000/svg" xmlns:xlink="http://www.w3.org/1999/xlink">
<g id="graph0" class="graph" transform="scale(1 1) rotate(0) translate(4 80)">
<title>lib/tgs2600.h</title>
<!-- Node0 -->
<g id="node1" class="node"><title>Node0</title>
<polygon fill="#bfbfbf" stroke="black" points="65,-56.5 65,-75.5 137,-75.5 137,-56.5 65,-56.5"/>
<text text-anchor="middle" x="101" y="-63.5" font-family="Helvetica,sans-Serif" font-size="10.00">lib/tgs2600.h</text>
</g>
<!-- Node1 -->
<g id="node2" class="node"><title>Node1</title>
<g id="a_node2"><a xlink:href="main_8cpp.html" target="_top" xlink:title="The main weather station application utilizing Sensors library and AVR C++ utilities library...">
<polygon fill="none" stroke="black" points="0,-0.5 0,-19.5 84,-19.5 84,-0.5 0,-0.5"/>
<text text-anchor="middle" x="42" y="-7.5" font-family="Helvetica,sans-Serif" font-size="10.00">target/main.cpp</text>
</a>
</g>
</g>
<!-- Node0&#45;&gt;Node1 -->
<g id="edge1" class="edge"><title>Node0&#45;&gt;Node1</title>
<path fill="none" stroke="midnightblue" d="M84.1055,-49.5372C73.5855,-39.9087 60.4313,-27.8694 51.6519,-19.8339"/>
<polygon fill="midnightblue" stroke="midnightblue" points="81.7808,-52.1542 91.5206,-56.324 86.5069,-46.9905 81.7808,-52.1542"/>
</g>
<!-- Node2 -->
<g id="node3" class="node"><title>Node2</title>
<g id="a_node3"><a xlink:href="test__tgs2600_8cpp.html" target="_top" xlink:title="Unit tests for Sensors::Tgs2600. ">
<polygon fill="none" stroke="black" points="102,-0.5 102,-19.5 218,-19.5 218,-0.5 102,-0.5"/>
<text text-anchor="middle" x="160" y="-7.5" font-family="Helvetica,sans-Serif" font-size="10.00">tests/test_tgs2600.cpp</text>
</a>
</g>
</g>
<!-- Node0&#45;&gt;Node2 -->
<g id="edge2" class="edge"><title>Node0&#45;&gt;Node2</title>
<path fill="none" stroke="midnightblue" d="M117.895,-49.5372C128.415,-39.9087 141.569,-27.8694 150.348,-19.8339"/>
<polygon fill="midnightblue" stroke="midnightblue" points="115.493,-46.9905 110.479,-56.324 120.219,-52.1542 115.493,-46.9905"/>
</g>
</g>
</svg>
