<svg xmlns="http://www.w3.org/2000/svg" width="130" height="70" viewBox="0 0 130 70"><path fill-rule="evenodd" clip-rule="evenodd" fill="#fc0" d="M62.846 29.5c0 13.71-11.113 24.823-24.824 24.823C24.312 54.323 13.2 43.21 13.2 29.5S24.313 4.676 38.02 4.676c13.712 0 24.826 11.114 24.826 24.824z"/><path fill-rule="evenodd" clip-rule="evenodd" fill="#09f" d="M109.898 23.663c12.58-.264 15.127 14.227 5.682 18.278l-79.04.248c-12.625-3.285-8.314-26.2 9.386-19.02C47.084 11.04 67.49 6.46 73.59 17.242l.493-.246c3.25-17.806 35.867-14.678 35.815 6.67zM88.04 63.718c0 1.44-1.16 2.607-2.595 2.607-1.43 0-2.592-1.167-2.592-2.607s2.592-5.794 2.592-5.794 2.595 4.354 2.595 5.794zM88.04 51.368c0 1.44-1.16 2.607-2.595 2.607-1.43 0-2.592-1.167-2.592-2.607s2.592-5.794 2.592-5.794 2.595 4.354 2.595 5.794zM97.78 63.718c0 1.44-1.16 2.607-2.595 2.607-1.432 0-2.594-1.167-2.594-2.607s2.595-5.794 2.595-5.794 2.594 4.354 2.594 5.794zM97.78 51.368c0 1.44-1.16 2.607-2.595 2.607-1.432 0-2.594-1.167-2.594-2.607s2.595-5.794 2.595-5.794 2.594 4.354 2.594 5.794zM107.52 63.718c0 1.44-1.162 2.607-2.594 2.607-1.433 0-2.594-1.167-2.594-2.607s2.594-5.794 2.594-5.794 2.594 4.354 2.594 5.794zM107.52 51.368c0 1.44-1.162 2.607-2.594 2.607-1.433 0-2.594-1.167-2.594-2.607s2.594-5.794 2.594-5.794 2.594 4.354 2.594 5.794z"/><g fill="#f60"><path d="M10.665 53.504c.623-.285 1.494-.675 2.898-.675 2.844 0 3.502 1.385 3.502 3.68v4c0 .657.07 1.26.124 1.617h-1.992c-.106-.355-.124-.8-.124-1.244h-.036c-.55.747-1.244 1.386-2.56 1.386-1.422 0-2.737-.98-2.737-2.685 0-2.49 2.027-3.11 4.818-3.11h.444v-.34c0-.906-.444-1.74-1.706-1.74-1.103 0-2.08.532-2.507.888l-.125-1.78zm4.338 4.142h-.195c-1.885 0-3.005.39-3.005 1.724 0 .835.552 1.404 1.404 1.404 1.316 0 1.796-.978 1.796-2.613v-.514zM19.93 51.086l2.205-.676v2.56h1.83v1.618h-1.83v4.746c0 .978.355 1.262.995 1.262.392 0 .676-.106.836-.195v1.565c-.338.16-.818.302-1.476.302-1.636 0-2.56-.747-2.56-2.667v-5.013h-1.458V52.97h1.458v-1.884zM35.505 51.78h-.035l-3.11 10.346H30.74l-2.97-10.346h-.036v10.346h-2.062v-12.41h3.396l2.56 9.263h.035l2.613-9.263h3.29v12.408h-2.064V51.78zM40.187 49.717h6.524v1.813h-4.248v3.306h4.018v1.813h-4.018v3.66h4.427v1.814h-6.703V49.717zM50.91 51.53h-2.774V49.72h7.804v1.813h-2.755v10.596H50.91V51.53zM57.633 49.717h6.524v1.813h-4.25v3.306h4.02v1.813h-4.02v3.66h4.428v1.814h-6.702V49.717zM70.97 49.54c2.576 0 4.94 1.92 4.94 6.382s-2.364 6.382-4.94 6.382c-2.58 0-4.943-1.92-4.943-6.382s2.364-6.382 4.942-6.382zm0 11.02c1.438 0 2.594-1.226 2.594-4.64s-1.155-4.64-2.595-4.64c-1.44 0-2.597 1.228-2.597 4.64s1.155 4.64 2.596 4.64z"/></g></svg>